<svg xmlns="http://www.w3.org/2000/svg" width="305.068" height="55.68" viewBox="0 0 305.068 55.68">
  <g id="hg_copyright" transform="translate(-9.683 -4.82)" opacity="0.5">
    <path id="Path_61" data-name="Path 61" d="M233.88,36h-1.81a2.87,2.87,0,0,1-2.56-1.31,4.84,4.84,0,0,1-.76-2.82V26.6c0-1.83-.78-2.87-2.35-3.12v-2q2.35-.25,2.35-3.71v-4.9A4.17,4.17,0,0,1,229.7,10a3.11,3.11,0,0,1,2.46-1h1.72v1.72h-1.25c-1,0-1.57.87-1.57,2.61v5.1q0,3.24-2.53,4c1.71.43,2.57,1.89,2.57,4.4V31.7c0,1.66.42,2.5,1.36,2.5h1.42Z" fill="#fff"/>
    <path id="Path_62" data-name="Path 62" d="M242.79,16.48a3.37,3.37,0,0,1,3.3,2.86,1.432,1.432,0,0,0,2.83-.44,6.2,6.2,0,0,0-12.34,1v5.05a6.24,6.24,0,0,0,6.21,6.28,6.33,6.33,0,0,0,6.13-5.28,1.433,1.433,0,1,0-2.83-.45,3.37,3.37,0,0,1-3.3,2.86,3.42,3.42,0,0,1-3.34-3.41V19.89a3.43,3.43,0,0,1,3.34-3.41Z" fill="#fff"/>
    <path id="Path_63" data-name="Path 63" d="M258.64,13.61a6.22,6.22,0,0,0-6.21,6.21V25a6.22,6.22,0,1,0,12.43,0V19.82a6.22,6.22,0,0,0-6.22-6.21ZM262,25a3.3,3.3,0,0,1-3.34,3.34A3.35,3.35,0,0,1,255.3,25V19.82a3.39,3.39,0,0,1,3.34-3.34A3.35,3.35,0,0,1,262,19.82Z" fill="#fff"/>
    <path id="Path_64" data-name="Path 64" d="M279.87,4.82a1.44,1.44,0,0,0-1.46,1.42v8.53a5.44,5.44,0,0,0-3.34-1.16,6.22,6.22,0,0,0-6.21,6.21V25a6.24,6.24,0,0,0,6.21,6.24A5.4,5.4,0,0,0,278.43,30a1.46,1.46,0,0,0,1.44,1.21,1.44,1.44,0,0,0,1.42-1.45V6.24a1.44,1.44,0,0,0-1.42-1.42Zm-1.46,20.59c0,1.74-1.34,2.91-3.34,2.91A3.34,3.34,0,0,1,271.74,25V19.82a3.34,3.34,0,0,1,3.33-3.34c2,0,3.34,1.17,3.34,2.91Z" fill="#fff"/>
    <path id="Path_65" data-name="Path 65" d="M292.44,13.61a6.24,6.24,0,0,0-6.25,6.21V25a6.23,6.23,0,0,0,11.88,2.62,1.48,1.48,0,0,0-.7-1.93,1.5,1.5,0,0,0-1.93.73A3.33,3.33,0,0,1,289.1,25V23.8h8.1a1.43,1.43,0,0,0,1.46-1.42V19.89a6.26,6.26,0,0,0-6.22-6.28Zm3.31,7.32H289.1V19.82a3.33,3.33,0,1,1,6.65,0Z" fill="#fff"/>
    <path id="Path_66" data-name="Path 66" d="M308.47,23.48c-1.57.25-2.35,1.29-2.35,3.12v5.22a5,5,0,0,1-.73,2.82A2.81,2.81,0,0,1,302.86,36H301V34.19h1.4c1,0,1.44-.84,1.38-2.5V26.82c0-2.51.86-4,2.57-4.4q-2.52-.8-2.52-4v-5.1c0-1.74-.54-2.61-1.6-2.61H301V9h1.72a3.08,3.08,0,0,1,2.45,1,4.17,4.17,0,0,1,.95,2.85v4.89q0,3.45,2.35,3.71Z" fill="#fff"/>
    <path id="Path_67" data-name="Path 67" d="M149.49,31.16a2.27,2.27,0,0,1-2.3-2.14V21.37h-7V29a2.31,2.31,0,0,1-4.61,0V9.5a2.32,2.32,0,0,1,4.61,0v7.66h7V9.5a2.32,2.32,0,0,1,4.61,0V29a2.26,2.26,0,0,1-2.31,2.16Z" fill="#fff"/>
    <path id="Path_68" data-name="Path 68" d="M164.71,15.48a2.31,2.31,0,0,1,4.41.63,1.52,1.52,0,0,1-.1.59l-4,11.7c-1.81,5.33-3.06,9.14-8,9.14a2,2,0,1,1-.13-3.95c1.44-.06,2.17-1.11,3-3.68l-5.07-13a2.24,2.24,0,0,1-.16-.82,2.07,2.07,0,0,1,2.27-1.94,2.13,2.13,0,0,1,2.06,1.38L161,21c.46,1.19.69,2.57,1.05,3.78.29-1.21.53-2.59.92-3.78Z" fill="#fff"/>
    <path id="Path_69" data-name="Path 69" d="M201.41,14.23a2.35,2.35,0,0,0-2.22,1.6,5.68,5.68,0,0,0-1.53-1.17,5,5,0,0,0-2.15-.43,6.26,6.26,0,0,0-2.78.64,7.6,7.6,0,0,0-2.32,1.75,8.22,8.22,0,0,0-1.57,2.66,10.33,10.33,0,0,0,0,6.65,8.34,8.34,0,0,0,1.46,2.62,6.38,6.38,0,0,0,2.14,1.72,5.86,5.86,0,0,0,2.62.6,6,6,0,0,0,2.65-.6,6.69,6.69,0,0,0,2.21-1.74v1a4.83,4.83,0,0,1-1.11,3.41,4,4,0,0,1-3.12,1.2,5.53,5.53,0,0,1-3-1.07,2,2,0,1,0-2,3.35,9.11,9.11,0,0,0,5.07,1.38c3.31,0,5.63-1.19,7-3.46a7.24,7.24,0,0,0,.91-2.87,33.242,33.242,0,0,0,.2-3.83V16.33a2.28,2.28,0,0,0-2.46-2.1ZM198.77,26a3.19,3.19,0,0,1-2.55,1.24A3.26,3.26,0,0,1,193.64,26a5,5,0,0,1-1-3.36,4.76,4.76,0,0,1,1-3.26,3.3,3.3,0,0,1,2.58-1.17,3.26,3.26,0,0,1,2.53,1.17,4.76,4.76,0,0,1,1,3.26A5.12,5.12,0,0,1,198.77,26Z" fill="#fff"/>
    <path id="Path_70" data-name="Path 70" d="M183.55,14.23a2.34,2.34,0,0,0-2.22,1.6,5.68,5.68,0,0,0-1.53-1.17,5,5,0,0,0-2.14-.43,6.21,6.21,0,0,0-2.79.64,7.37,7.37,0,0,0-2.32,1.75A8,8,0,0,0,171,19.28a9.66,9.66,0,0,0-.57,3.35,9.93,9.93,0,0,0,.52,3.3,8.75,8.75,0,0,0,1.46,2.62,6.42,6.42,0,0,0,2.15,1.72,5.83,5.83,0,0,0,2.62.6,6,6,0,0,0,2.65-.6,6.65,6.65,0,0,0,2.2-1.74v1a4.87,4.87,0,0,1-1.1,3.41,4,4,0,0,1-3.12,1.2,5.56,5.56,0,0,1-3-1.07,2,2,0,1,0-2,3.35,9.11,9.11,0,0,0,5.07,1.38c3.31,0,5.62-1.19,7-3.46a7.09,7.09,0,0,0,.92-2.87,33.424,33.424,0,0,0,.19-3.83V16.33a2.27,2.27,0,0,0-2.44-2.1ZM180.91,26a3.19,3.19,0,0,1-2.55,1.24A3.26,3.26,0,0,1,175.78,26a5,5,0,0,1-1-3.36,4.76,4.76,0,0,1,1-3.26,3.3,3.3,0,0,1,2.58-1.17,3.24,3.24,0,0,1,2.52,1.17,4.76,4.76,0,0,1,1,3.26,5.18,5.18,0,0,1-.97,3.36Z" fill="#fff"/>
    <path id="Path_71" data-name="Path 71" d="M221.58,20.85a7.69,7.69,0,0,0-.47-1.83,7.81,7.81,0,0,0-1.57-2.52,7.21,7.21,0,0,0-2.42-1.7,7.48,7.48,0,0,0-3.09-.62,7.7,7.7,0,0,0-3.14.64,7.58,7.58,0,0,0-2.5,1.8,8.37,8.37,0,0,0-1.66,2.73,9.58,9.58,0,0,0-.6,3.43,9.1,9.1,0,0,0,.62,3.4,8.36,8.36,0,0,0,1.71,2.68A7.81,7.81,0,0,0,211,30.63a8.08,8.08,0,0,0,3.22.64,7.61,7.61,0,0,0,3.11-.62,7.13,7.13,0,0,0,2.43-1.71,4.2,4.2,0,0,0,.48-.55,1.87,1.87,0,0,0-.25-2.7,1.92,1.92,0,0,0-2.56.57,3.512,3.512,0,0,1-.33.34,3.85,3.85,0,0,1-2.58,1q-3.67,0-4.18-3.84h9a2.38,2.38,0,0,0,2.24-2.91Zm-11.18,0a5,5,0,0,1,1.28-2.46,3.42,3.42,0,0,1,2.4-.95,3.34,3.34,0,0,1,2.38,1,4,4,0,0,1,1.12,2.41Z" fill="#fff"/>
    <path id="Path_72" data-name="Path 72" d="M17.59,54.16a3.79,3.79,0,0,1-1.2,2.51,4,4,0,0,1-2.69.89,3.65,3.65,0,0,1-2.92-1.31,5.24,5.24,0,0,1-1.09-3.48v-1a5.91,5.91,0,0,1,.51-2.52,3.74,3.74,0,0,1,1.45-1.66A4,4,0,0,1,13.82,47a3.7,3.7,0,0,1,2.62.92,3.82,3.82,0,0,1,1.15,2.52H16.23a2.92,2.92,0,0,0-.77-1.78,2.29,2.29,0,0,0-1.64-.55,2.41,2.41,0,0,0-2,1,4.35,4.35,0,0,0-.74,2.73v1a4.45,4.45,0,0,0,.7,2.65,2.24,2.24,0,0,0,1.95,1,2.61,2.61,0,0,0,1.73-.51,2.82,2.82,0,0,0,.8-1.78Z" fill="#fff"/>
    <path id="Path_73" data-name="Path 73" d="M18.89,53.53a4.43,4.43,0,0,1,.44-2,3.23,3.23,0,0,1,1.22-1.38,3.31,3.31,0,0,1,1.8-.49,3.24,3.24,0,0,1,2.52,1.08,4.15,4.15,0,0,1,1,2.87v.09a4.48,4.48,0,0,1-.43,2,3.13,3.13,0,0,1-1.22,1.37,3.36,3.36,0,0,1-1.82.5,3.2,3.2,0,0,1-2.51-1.08,4.13,4.13,0,0,1-1-2.85Zm1.31.16a3.25,3.25,0,0,0,.59,2,2,2,0,0,0,3.15,0,3.54,3.54,0,0,0,.58-2.18,3.24,3.24,0,0,0-.59-2,1.9,1.9,0,0,0-1.58-.78,1.87,1.87,0,0,0-1.56.77,3.51,3.51,0,0,0-.59,2.19Z" fill="#fff"/>
    <path id="Path_74" data-name="Path 74" d="M33.9,53.69a4.56,4.56,0,0,1-.79,2.8A2.56,2.56,0,0,1,31,57.56a2.8,2.8,0,0,1-2.18-.88v3.67H27.46V49.79h1.19l.07.85a2.68,2.68,0,0,1,2.21-1,2.59,2.59,0,0,1,2.17,1,4.57,4.57,0,0,1,.8,2.88Zm-1.3-.15a3.36,3.36,0,0,0-.55-2,1.79,1.79,0,0,0-1.51-.74,1.9,1.9,0,0,0-1.77,1.05v3.64a1.9,1.9,0,0,0,1.79,1,1.76,1.76,0,0,0,1.49-.74,3.68,3.68,0,0,0,.55-2.21Z" fill="#fff"/>
    <path id="Path_75" data-name="Path 75" d="M38,55.51l1.77-5.72h1.4l-3.07,8.8c-.47,1.27-1.23,1.91-2.26,1.91h-.25l-.48-.1V59.33h.35a1.71,1.71,0,0,0,1-.26,2,2,0,0,0,.61-1l.29-.78-2.72-7.54h1.42Z" fill="#fff"/>
    <path id="Path_76" data-name="Path 76" d="M46,51a4.26,4.26,0,0,0-.64-.05A1.72,1.72,0,0,0,43.62,52v5.42H42.31V49.79h1.27v.88a2,2,0,0,1,1.82-1,1.29,1.29,0,0,1,.58.1Z" fill="#fff"/>
    <path id="Path_77" data-name="Path 77" d="M47.2,47.77a.8.8,0,0,1,.2-.54A.74.74,0,0,1,48,47a.77.77,0,0,1,.58.22.8.8,0,0,1,.2.54.71.71,0,0,1-.78.74.74.74,0,0,1-.57-.21.76.76,0,0,1-.23-.52Zm1.41,9.65h-1.3V49.79h1.3Z" fill="#fff"/>
    <path id="Path_78" data-name="Path 78" d="M50.39,53.54a4.5,4.5,0,0,1,.82-2.84,2.65,2.65,0,0,1,2.19-1.05,2.6,2.6,0,0,1,2.17,1l.07-.85h1.19v7.44A3.1,3.1,0,0,1,56,59.57a3.26,3.26,0,0,1-2.36.85A4,4,0,0,1,52,60.07a2.73,2.73,0,0,1-1.2-1l.67-.78a2.54,2.54,0,0,0,2,1A2,2,0,0,0,55,58.82a2.07,2.07,0,0,0,.53-1.51v-.65a2.69,2.69,0,0,1-2.14.9,2.59,2.59,0,0,1-2.16-1.08A4.67,4.67,0,0,1,50.39,53.54Zm1.31.15a3.34,3.34,0,0,0,.53,2,1.69,1.69,0,0,0,1.48.74,1.91,1.91,0,0,0,1.81-1.12V51.85a1.93,1.93,0,0,0-1.8-1.09,1.73,1.73,0,0,0-1.49.74,3.76,3.76,0,0,0-.53,2.19Z" fill="#fff"/>
    <path id="Path_79" data-name="Path 79" d="M60.1,50.71a2.8,2.8,0,0,1,2.25-1.06c1.62,0,2.43.91,2.44,2.73v5h-1.3V52.37a1.76,1.76,0,0,0-.38-1.22A1.51,1.51,0,0,0,62,50.76a1.85,1.85,0,0,0-1.11.34,2.29,2.29,0,0,0-.75.88v5.44H58.8V46.59h1.3Z" fill="#fff"/>
    <path id="Path_80" data-name="Path 80" d="M68.51,47.94v1.85h1.43v1H68.51v4.73a1.09,1.09,0,0,0,.19.69.79.79,0,0,0,.65.23,3.6,3.6,0,0,0,.62-.08v1.05a3.89,3.89,0,0,1-1,.14A1.65,1.65,0,0,1,67.65,57a2.29,2.29,0,0,1-.44-1.5V50.8H65.82v-1h1.39V47.94Z" fill="#fff"/>
    <path id="Path_81" data-name="Path 81" d="M92.34,57.42H85.62v-.94l3.55-3.95a8.16,8.16,0,0,0,1.09-1.45,2.45,2.45,0,0,0,.3-1.16,1.81,1.81,0,0,0-.49-1.32,1.69,1.69,0,0,0-1.29-.51,2,2,0,0,0-1.52.55,2.11,2.11,0,0,0-.54,1.54h-1.3a3,3,0,0,1,.91-2.29A3.42,3.42,0,0,1,88.78,47a3.22,3.22,0,0,1,2.26.76,2.56,2.56,0,0,1,.83,2c0,1-.65,2.22-1.93,3.61l-2.75,3h5.15Z" fill="#fff"/>
    <path id="Path_82" data-name="Path 82" d="M100.16,53a6,6,0,0,1-.78,3.4,3.25,3.25,0,0,1-4.88,0,5.64,5.64,0,0,1-.82-3.25V51.48a5.89,5.89,0,0,1,.78-3.37,3.3,3.3,0,0,1,4.89,0,5.56,5.56,0,0,1,.81,3.27Zm-1.31-1.78a4.81,4.81,0,0,0-.46-2.42,1.6,1.6,0,0,0-1.47-.75,1.58,1.58,0,0,0-1.46.75A4.62,4.62,0,0,0,95,51.16v2.08a4.78,4.78,0,0,0,.49,2.46,1.59,1.59,0,0,0,1.46.79,1.56,1.56,0,0,0,1.43-.74,4.59,4.59,0,0,0,.49-2.36Z" fill="#fff"/>
    <path id="Path_83" data-name="Path 83" d="M106.11,57.42H104.8V48.73l-2.63,1V48.51l3.74-1.4h.2Z" fill="#fff"/>
    <path id="Path_84" data-name="Path 84" d="M116.16,49.83a2.38,2.38,0,0,1-.41,1.37,2.81,2.81,0,0,1-1.1.94,2.93,2.93,0,0,1,1.28,1,2.54,2.54,0,0,1,.46,1.5,2.67,2.67,0,0,1-.89,2.12,3.93,3.93,0,0,1-4.74,0,2.68,2.68,0,0,1-.89-2.11,2.6,2.6,0,0,1,.45-1.5,2.89,2.89,0,0,1,1.26-1,2.74,2.74,0,0,1-1.08-.94,2.43,2.43,0,0,1-.39-1.36,2.64,2.64,0,0,1,.83-2,3.5,3.5,0,0,1,4.38,0,2.62,2.62,0,0,1,.84,1.98Zm-1.07,4.79a2,2,0,0,0-3.38-1.41,1.91,1.91,0,0,0-.54,1.41,1.83,1.83,0,0,0,.52,1.37,2.32,2.32,0,0,0,2.88,0,1.81,1.81,0,0,0,.52-1.37Zm-2-6.53a1.65,1.65,0,0,0-1.24.47,2,2,0,0,0,0,2.56,1.87,1.87,0,0,0,2.5,0,1.74,1.74,0,0,0,.47-1.26,1.72,1.72,0,0,0-.49-1.28,1.63,1.63,0,0,0-1.2-.49Z" fill="#fff"/>
    <path id="Path_85" data-name="Path 85" d="M129.83,57.42h-1.36V52.67H123.3v4.75H122V47.16h1.35v4.41h5.17V47.16h1.36Z" fill="#fff"/>
    <path id="Path_86" data-name="Path 86" d="M134.53,55.51l1.77-5.72h1.4l-3.07,8.8c-.47,1.27-1.23,1.91-2.26,1.91h-.25l-.48-.1V59.33h.35a1.71,1.71,0,0,0,1-.26,2,2,0,0,0,.61-1l.29-.78-2.72-7.54h1.42Z" fill="#fff"/>
    <path id="Path_87" data-name="Path 87" d="M138.46,53.54a4.5,4.5,0,0,1,.83-2.84,2.84,2.84,0,0,1,4.36-.06l.06-.85h1.19v7.44a3.13,3.13,0,0,1-.87,2.34,3.3,3.3,0,0,1-2.36.85,4,4,0,0,1-1.62-.35,2.85,2.85,0,0,1-1.2-1l.67-.78a2.56,2.56,0,0,0,2.06,1,2,2,0,0,0,1.48-.53,2.07,2.07,0,0,0,.53-1.51V56.6a2.67,2.67,0,0,1-2.13.9,2.6,2.6,0,0,1-2.17-1.08,4.73,4.73,0,0,1-.83-2.88Zm1.31.15a3.41,3.41,0,0,0,.53,2,1.7,1.7,0,0,0,1.48.74,1.9,1.9,0,0,0,1.81-1.12V51.85a1.93,1.93,0,0,0-1.8-1.09,1.7,1.7,0,0,0-1.48.74,3.68,3.68,0,0,0-.54,2.19Z" fill="#fff"/>
    <path id="Path_88" data-name="Path 88" d="M146.56,53.54a4.5,4.5,0,0,1,.82-2.84,2.65,2.65,0,0,1,2.19-1.05,2.6,2.6,0,0,1,2.17,1l.07-.85H153v7.44a3.1,3.1,0,0,1-.88,2.34,3.26,3.26,0,0,1-2.36.85,4,4,0,0,1-1.61-.35,2.73,2.73,0,0,1-1.2-1l.67-.78a2.54,2.54,0,0,0,2,1,2,2,0,0,0,1.49-.53,2.07,2.07,0,0,0,.53-1.51v-.65a2.69,2.69,0,0,1-2.14.9,2.59,2.59,0,0,1-2.16-1.08A4.67,4.67,0,0,1,146.56,53.54Zm1.31.15a3.34,3.34,0,0,0,.53,2,1.69,1.69,0,0,0,1.48.74,1.91,1.91,0,0,0,1.81-1.12V51.85a1.93,1.93,0,0,0-1.8-1.09,1.73,1.73,0,0,0-1.49.74,3.76,3.76,0,0,0-.53,2.19Z" fill="#fff"/>
    <path id="Path_89" data-name="Path 89" d="M158.13,57.56a3.33,3.33,0,0,1-2.52-1,3.78,3.78,0,0,1-1-2.72V53.6a4.56,4.56,0,0,1,.44-2,3.44,3.44,0,0,1,1.21-1.4,3.09,3.09,0,0,1,1.69-.5,2.86,2.86,0,0,1,2.31,1,4.24,4.24,0,0,1,.82,2.81V54h-5.16a2.71,2.71,0,0,0,.66,1.82,2.07,2.07,0,0,0,1.6.69,2.25,2.25,0,0,0,1.17-.28,2.84,2.84,0,0,0,.84-.75l.8.62a3.2,3.2,0,0,1-2.86,1.46ZM158,50.72a1.73,1.73,0,0,0-1.33.58,2.87,2.87,0,0,0-.66,1.61h3.82v-.1a2.49,2.49,0,0,0-.54-1.54,1.6,1.6,0,0,0-1.29-.55Z" fill="#fff"/>
    <path id="Path_90" data-name="Path 90" d="M165.67,56.49a1.88,1.88,0,0,0,1.22-.42,1.48,1.48,0,0,0,.58-1.06h1.23a2.3,2.3,0,0,1-.45,1.25,3,3,0,0,1-1.11,1,3.25,3.25,0,0,1-1.47.35,3.16,3.16,0,0,1-2.48-1,4.16,4.16,0,0,1-.92-2.85v-.21a4.58,4.58,0,0,1,.41-2,3.18,3.18,0,0,1,1.18-1.35,3.32,3.32,0,0,1,1.8-.48,3.09,3.09,0,0,1,2.14.77,2.77,2.77,0,0,1,.9,2h-1.23a1.83,1.83,0,0,0-.56-1.21,1.74,1.74,0,0,0-1.25-.48,1.83,1.83,0,0,0-1.54.72,3.36,3.36,0,0,0-.54,2.07v.24a3.29,3.29,0,0,0,.54,2,1.82,1.82,0,0,0,1.55.66Z" fill="#fff"/>
    <path id="Path_91" data-name="Path 91" d="M169.82,53.53a4.56,4.56,0,0,1,.44-2,3.26,3.26,0,0,1,3-1.87,3.21,3.21,0,0,1,2.52,1.08,4.15,4.15,0,0,1,1,2.87v.09a4.62,4.62,0,0,1-.42,2,3.19,3.19,0,0,1-1.22,1.37,3.38,3.38,0,0,1-1.82.5,3.21,3.21,0,0,1-2.52-1.08,4.13,4.13,0,0,1-1-2.85Zm1.31.16a3.31,3.31,0,0,0,.59,2,1.88,1.88,0,0,0,1.58.76,1.85,1.85,0,0,0,1.57-.78,3.53,3.53,0,0,0,.59-2.18,3.24,3.24,0,0,0-.6-2,1.88,1.88,0,0,0-1.58-.78,1.9,1.9,0,0,0-1.56.77,3.58,3.58,0,0,0-.59,2.21Z" fill="#fff"/>
    <path id="Path_92" data-name="Path 92" d="M178.08,53.54a4.48,4.48,0,0,1,.83-2.82,2.82,2.82,0,0,1,4.3-.15v-4h1.31V57.42h-1.2l-.07-.82a2.64,2.64,0,0,1-2.17,1,2.57,2.57,0,0,1-2.16-1.09,4.47,4.47,0,0,1-.84-2.83Zm1.31.15a3.38,3.38,0,0,0,.53,2,1.73,1.73,0,0,0,1.48.73,1.9,1.9,0,0,0,1.81-1.11v-3.5a1.91,1.91,0,0,0-1.79-1.08,1.74,1.74,0,0,0-1.5.74,3.69,3.69,0,0,0-.53,2.22Z" fill="#fff"/>
    <path id="Path_93" data-name="Path 93" d="M189.7,57.56a3.33,3.33,0,0,1-2.52-1,3.77,3.77,0,0,1-1-2.72V53.6a4.55,4.55,0,0,1,.43-2,3.44,3.44,0,0,1,1.21-1.4,3.12,3.12,0,0,1,1.69-.5,2.86,2.86,0,0,1,2.31,1,4.24,4.24,0,0,1,.83,2.81V54h-5.17a2.71,2.71,0,0,0,.66,1.82,2.08,2.08,0,0,0,1.6.69,2.25,2.25,0,0,0,1.17-.28,2.84,2.84,0,0,0,.84-.75l.8.62a3.2,3.2,0,0,1-2.85,1.46Zm-.16-6.84a1.69,1.69,0,0,0-1.32.58,2.8,2.8,0,0,0-.67,1.61h3.82v-.1a2.43,2.43,0,0,0-.53-1.54,1.62,1.62,0,0,0-1.3-.55Z" fill="#fff"/>
    <path id="Path_94" data-name="Path 94" d="M203.63,54.73h-4.3l-1,2.69H197l3.92-10.26h1.18L206,57.42h-1.39Zm-3.89-1.1h3.49l-1.75-4.8Z" fill="#fff"/>
    <path id="Path_95" data-name="Path 95" d="M208.59,57.42h-1.3V46.59h1.3Z" fill="#fff"/>
    <path id="Path_96" data-name="Path 96" d="M212.09,57.42h-1.3V46.59h1.3Z" fill="#fff"/>
    <path id="Path_97" data-name="Path 97" d="M221.44,51a4.259,4.259,0,0,0-.64-.05A1.72,1.72,0,0,0,219.06,52v5.42h-1.31V49.79H219v.88a2,2,0,0,1,1.82-1,1.29,1.29,0,0,1,.58.1Z" fill="#fff"/>
    <path id="Path_98" data-name="Path 98" d="M222.64,47.77a.8.8,0,0,1,.2-.54.74.74,0,0,1,.57-.22.77.77,0,0,1,.58.22.8.8,0,0,1,.2.54.71.71,0,0,1-.78.74.74.74,0,0,1-.57-.21.76.76,0,0,1-.2-.53Zm1.41,9.65h-1.3V49.79h1.3Z" fill="#fff"/>
    <path id="Path_99" data-name="Path 99" d="M225.83,53.54a4.5,4.5,0,0,1,.82-2.84,2.85,2.85,0,0,1,4.37-.06l.06-.85h1.19v7.44a3.1,3.1,0,0,1-.88,2.34,3.26,3.26,0,0,1-2.36.85,4,4,0,0,1-1.61-.35,2.73,2.73,0,0,1-1.2-1l.67-.78a2.56,2.56,0,0,0,2.05,1,2,2,0,0,0,1.49-.53,2.07,2.07,0,0,0,.53-1.51V56.6a2.68,2.68,0,0,1-2.14.9,2.59,2.59,0,0,1-2.16-1.08,4.67,4.67,0,0,1-.83-2.88Zm1.31.15a3.41,3.41,0,0,0,.53,2,1.69,1.69,0,0,0,1.48.74,1.91,1.91,0,0,0,1.85-1.1V51.85a1.93,1.93,0,0,0-1.8-1.09,1.73,1.73,0,0,0-1.49.74,3.76,3.76,0,0,0-.57,2.19Z" fill="#fff"/>
    <path id="Path_100" data-name="Path 100" d="M235.54,50.71a2.8,2.8,0,0,1,2.26-1.06q2.41,0,2.43,2.73v5h-1.3V52.37a1.76,1.76,0,0,0-.38-1.22,1.51,1.51,0,0,0-1.15-.39,1.85,1.85,0,0,0-1.11.34,2.29,2.29,0,0,0-.75.88v5.44h-1.3V46.59h1.3Z" fill="#fff"/>
    <path id="Path_101" data-name="Path 101" d="M244,47.94v1.85h1.43v1H244v4.73a1.09,1.09,0,0,0,.19.69.79.79,0,0,0,.65.23,3.6,3.6,0,0,0,.62-.08v1.05a3.89,3.89,0,0,1-1,.14,1.65,1.65,0,0,1-1.32-.53,2.29,2.29,0,0,1-.44-1.5V50.8h-1.39v-1h1.39V47.94Z" fill="#fff"/>
    <path id="Path_102" data-name="Path 102" d="M251.34,55.39a1,1,0,0,0-.4-.82,3.89,3.89,0,0,0-1.39-.5,6.42,6.42,0,0,1-1.57-.51,2.28,2.28,0,0,1-.86-.7,1.76,1.76,0,0,1-.28-1,2,2,0,0,1,.8-1.58,3.1,3.1,0,0,1,2-.65,3.18,3.18,0,0,1,2.11.67,2.15,2.15,0,0,1,.8,1.71h-1.31a1.19,1.19,0,0,0-.45-.92,1.7,1.7,0,0,0-1.15-.39,1.83,1.83,0,0,0-1.11.31,1,1,0,0,0-.4.81.78.78,0,0,0,.37.71,4.44,4.44,0,0,0,1.35.46,7.29,7.29,0,0,1,1.58.52,2.34,2.34,0,0,1,.9.73,1.77,1.77,0,0,1,.29,1,2,2,0,0,1-.81,1.64,3.46,3.46,0,0,1-2.12.62,3.8,3.8,0,0,1-1.63-.33,2.58,2.58,0,0,1-1.1-.9,2.24,2.24,0,0,1-.4-1.26h1.31a1.33,1.33,0,0,0,.52,1,2,2,0,0,0,1.3.38,2.08,2.08,0,0,0,1.18-.3.91.91,0,0,0,.47-.7Z" fill="#fff"/>
    <path id="Path_103" data-name="Path 103" d="M261.6,51a4.259,4.259,0,0,0-.64-.05A1.72,1.72,0,0,0,259.22,52v5.42h-1.3V49.79h1.26v.88a2,2,0,0,1,1.81-1,1.26,1.26,0,0,1,.58.1Z" fill="#fff"/>
    <path id="Path_104" data-name="Path 104" d="M265.83,57.56a3.33,3.33,0,0,1-2.52-1,3.78,3.78,0,0,1-1-2.72V53.6a4.56,4.56,0,0,1,.44-2,3.44,3.44,0,0,1,1.21-1.4,3.09,3.09,0,0,1,1.69-.5,2.86,2.86,0,0,1,2.31,1,4.24,4.24,0,0,1,.82,2.81V54h-5.16a2.71,2.71,0,0,0,.66,1.82,2.07,2.07,0,0,0,1.6.69,2.25,2.25,0,0,0,1.17-.28,2.84,2.84,0,0,0,.84-.75l.8.62a3.2,3.2,0,0,1-2.86,1.46Zm-.16-6.84a1.73,1.73,0,0,0-1.33.58,2.8,2.8,0,0,0-.66,1.61h3.82v-.1a2.49,2.49,0,0,0-.54-1.54,1.6,1.6,0,0,0-1.29-.55Z" fill="#fff"/>
    <path id="Path_105" data-name="Path 105" d="M274.75,55.39a1,1,0,0,0-.4-.82,3.82,3.82,0,0,0-1.38-.5,6.37,6.37,0,0,1-1.58-.51,2.28,2.28,0,0,1-.86-.7,1.76,1.76,0,0,1-.27-1,2,2,0,0,1,.79-1.58,3.1,3.1,0,0,1,2-.65,3.18,3.18,0,0,1,2.11.67A2.13,2.13,0,0,1,276,52h-1.32a1.19,1.19,0,0,0-.45-.92,1.7,1.7,0,0,0-1.15-.39A1.83,1.83,0,0,0,272,51a1,1,0,0,0-.4.81.78.78,0,0,0,.37.71,4.44,4.44,0,0,0,1.35.46,7.29,7.29,0,0,1,1.58.52,2.34,2.34,0,0,1,.9.73,1.77,1.77,0,0,1,.3,1,2,2,0,0,1-.82,1.64,3.44,3.44,0,0,1-2.12.62,3.78,3.78,0,0,1-1.62-.33,2.61,2.61,0,0,1-1.11-.9,2.24,2.24,0,0,1-.4-1.26h1.31a1.36,1.36,0,0,0,.52,1,2,2,0,0,0,1.3.38,2.06,2.06,0,0,0,1.18-.3.91.91,0,0,0,.41-.69Z" fill="#fff"/>
    <path id="Path_106" data-name="Path 106" d="M280.92,57.56a3.3,3.3,0,0,1-2.52-1,3.78,3.78,0,0,1-1-2.72V53.6a4.56,4.56,0,0,1,.44-2,3.44,3.44,0,0,1,1.21-1.4,3.09,3.09,0,0,1,1.69-.5,2.86,2.86,0,0,1,2.31,1,4.24,4.24,0,0,1,.82,2.81V54h-5.16a2.66,2.66,0,0,0,.66,1.82,2.07,2.07,0,0,0,1.6.69,2.25,2.25,0,0,0,1.17-.28,2.839,2.839,0,0,0,.84-.75l.79.62A3.17,3.17,0,0,1,280.92,57.56Zm-.16-6.84a1.73,1.73,0,0,0-1.33.58,2.73,2.73,0,0,0-.66,1.61h3.82v-.1a2.49,2.49,0,0,0-.54-1.54,1.62,1.62,0,0,0-1.29-.55Z" fill="#fff"/>
    <path id="Path_107" data-name="Path 107" d="M289.09,51a4.37,4.37,0,0,0-.64-.05A1.74,1.74,0,0,0,286.7,52v5.42h-1.3V49.79h1.27v.88a2,2,0,0,1,1.82-1,1.31,1.31,0,0,1,.58.1Z" fill="#fff"/>
    <path id="Path_108" data-name="Path 108" d="M292.93,55.65l1.89-5.86h1.33l-2.74,7.63h-1l-2.76-7.63H291Z" fill="#fff"/>
    <path id="Path_109" data-name="Path 109" d="M300.47,57.56a3.33,3.33,0,0,1-2.52-1,3.77,3.77,0,0,1-1-2.72V53.6a4.55,4.55,0,0,1,.43-2,3.47,3.47,0,0,1,1.22-1.4,3.06,3.06,0,0,1,1.68-.5,2.86,2.86,0,0,1,2.31,1,4.24,4.24,0,0,1,.83,2.81V54h-5.17a2.71,2.71,0,0,0,.66,1.82,2.09,2.09,0,0,0,1.61.69,2.25,2.25,0,0,0,1.17-.28,2.93,2.93,0,0,0,.83-.75l.8.62a3.2,3.2,0,0,1-2.85,1.46Zm-.16-6.84a1.71,1.71,0,0,0-1.32.58,2.73,2.73,0,0,0-.66,1.61h3.81v-.1a2.43,2.43,0,0,0-.53-1.54A1.62,1.62,0,0,0,300.31,50.72Z" fill="#fff"/>
    <path id="Path_110" data-name="Path 110" d="M304.64,53.54a4.48,4.48,0,0,1,.83-2.82,2.82,2.82,0,0,1,4.3-.15v-4h1.3V57.42h-1.19l-.07-.82a2.64,2.64,0,0,1-2.18,1,2.57,2.57,0,0,1-2.15-1.09,4.47,4.47,0,0,1-.84-2.83Zm1.3.15a3.37,3.37,0,0,0,.54,2,1.73,1.73,0,0,0,1.48.73,1.9,1.9,0,0,0,1.81-1.11v-3.5a1.92,1.92,0,0,0-1.8-1.08,1.72,1.72,0,0,0-1.49.74,3.68,3.68,0,0,0-.54,2.22Z" fill="#fff"/>
    <path id="Path_111" data-name="Path 111" d="M313.13,56.73a.79.79,0,0,1,.2-.56.75.75,0,0,1,.6-.23.76.76,0,0,1,.82.79.77.77,0,0,1-.21.55.82.82,0,0,1-.61.21.78.78,0,0,1-.6-.21A.76.76,0,0,1,313.13,56.73Z" fill="#fff"/>
    <path id="Path_112" data-name="Path 112" d="M79.17,53.75v.1c-.1.94-.57,1.4-1.45,1.4a1.34,1.34,0,0,1-1.18-.63,2.7,2.7,0,0,1-.37-1.46,2.27,2.27,0,0,1,.41-1.37,1.35,1.35,0,0,1,1.18-.62,1.21,1.21,0,0,1,1.37,1v.1H80v-.13a1.78,1.78,0,0,0-.71-1.3,2.41,2.41,0,0,0-1.56-.5,2.29,2.29,0,0,0-1.82.82,2.89,2.89,0,0,0-.69,2,3.27,3.27,0,0,0,.65,2.14,2.21,2.21,0,0,0,1.82.81,2.25,2.25,0,0,0,1.63-.59,2.6,2.6,0,0,0,.73-1.63v-.12Z" fill="#fff"/>
    <path id="Path_113" data-name="Path 113" d="M77.66,48.63a4.59,4.59,0,1,0,4.58,4.59,4.59,4.59,0,0,0-4.58-4.59Zm0,8.29a3.7,3.7,0,1,1,3.7-3.7,3.7,3.7,0,0,1-3.7,3.7Z" fill="#fff"/>
  </g>
</svg>
