<svg xmlns="http://www.w3.org/2000/svg" xmlns:xlink="http://www.w3.org/1999/xlink" width="167" height="167" viewBox="0 0 167 167">
  <defs>
    <linearGradient id="linear-gradient" x1="0.25" y1="0.067" x2="0.75" y2="0.933" gradientUnits="objectBoundingBox">
      <stop offset="0" stop-color="#158bff"/>
      <stop offset="0.299" stop-color="#15b8ea"/>
      <stop offset="0.604" stop-color="#15ded7"/>
      <stop offset="0.849" stop-color="#15f6cb"/>
      <stop offset="1" stop-color="#15ffc7"/>
    </linearGradient>
  </defs>
  <g id="Group_963" data-name="Group 963" transform="translate(-1.696 -1.695)">
    <g id="Group_847" data-name="Group 847" transform="translate(1.699 1.698)">
      <circle id="Ellipse_71" data-name="Ellipse 71" cx="83.5" cy="83.5" r="83.5" transform="translate(-0.003 -0.003)" fill="#fff"/>
    </g>
    <g id="Group_848" data-name="Group 848" transform="translate(13.926 13.926)">
      <circle id="Ellipse_72" data-name="Ellipse 72" cx="71.271" cy="71.271" r="71.271" fill="url(#linear-gradient)"/>
    </g>
    <g id="Group_908" data-name="Group 908" transform="translate(38.523 24.891)">
      <g id="Group_850" data-name="Group 850" transform="translate(4.033 98.556)" opacity="0.3">
        <g id="Group_849" data-name="Group 849">
          <path id="Path_6447" data-name="Path 6447" d="M59.356,219.413l77.761-.441.882-15-2.332-9.074L58.6,206.936Z" transform="translate(-58.6 -194.9)"/>
        </g>
      </g>
      <g id="Group_854" data-name="Group 854">
        <g id="Group_851" data-name="Group 851" transform="translate(0.063 0.063)">
          <path id="Path_6448" data-name="Path 6448" d="M52.3,38.6V159.527h84.441V38.6Z" transform="translate(-52.3 -38.6)" fill="#fff"/>
        </g>
        <g id="Group_853" data-name="Group 853">
          <g id="Group_852" data-name="Group 852">
            <path id="Path_6449" data-name="Path 6449" d="M52.263,38.563c.63,0,33.146,0,84.5-.063h.063V159.49h0v.063H52.2v-.063c0-71.4.063-120.171.063-120.927,0,.756.063,49.53.063,120.927l-.063-.063h84.5l-.063.063h0V38.563l.063.063C85.346,38.563,52.83,38.563,52.263,38.563Z" transform="translate(-52.2 -38.5)" fill="#1a2e35"/>
          </g>
        </g>
      </g>
      <g id="Group_907" data-name="Group 907" transform="translate(7.154 31.499)">
        <g id="Group_856" data-name="Group 856" transform="translate(0 19.472)">
          <g id="Group_855" data-name="Group 855">
            <path id="Path_6450" data-name="Path 6450" d="M75.492,131.242v-.882c0-.567,0-1.386-.063-2.395,0-2.08-.063-4.978-.063-8.444l.126.126H63.771c-.063,0,.252-.252.126-.126h0v11.721l-.126-.126c3.466,0,6.365.063,8.444.063,1.008,0,1.827,0,2.395.063h.063c-.567,0-1.386,0-2.395.063-2.08,0-5.041.063-8.57.063h-.126V119.521h0l.126-.126H75.555v.126c0,3.529-.063,6.428-.063,8.57,0,1.008,0,1.764-.063,2.395v.63A.2.2,0,0,1,75.492,131.242Z" transform="translate(-63.552 -119.387)" fill="#1a2e35"/>
          </g>
        </g>
        <g id="Group_858" data-name="Group 858" transform="translate(0 39.826)">
          <g id="Group_857" data-name="Group 857">
            <path id="Path_6451" data-name="Path 6451" d="M75.492,163.542v-.882c0-.567,0-1.386-.063-2.395,0-2.079-.063-4.978-.063-8.444l.126.126H63.771c-.063,0,.252-.252.126-.126h0v11.721l-.126-.126c3.466,0,6.365.063,8.444.063,1.008,0,1.827,0,2.395.063h.063c-.567,0-1.386,0-2.395.063-2.08,0-5.041.063-8.57.063h-.126V151.821h0l.126-.126H75.555v.126c0,3.529-.063,6.428-.063,8.57,0,1.008,0,1.764-.063,2.395v.63A.2.2,0,0,1,75.492,163.542Z" transform="translate(-63.552 -151.687)" fill="#1a2e35"/>
          </g>
        </g>
        <g id="Group_860" data-name="Group 860" transform="translate(0 60.18)">
          <g id="Group_859" data-name="Group 859">
            <path id="Path_6452" data-name="Path 6452" d="M75.492,195.842v-.882c0-.567,0-1.386-.063-2.395,0-2.08-.063-4.978-.063-8.444l.126.126H63.771c-.063,0,.252-.252.126-.126h0v11.721l-.126-.126c3.466,0,6.365.063,8.444.063,1.008,0,1.827,0,2.395.063h.063c-.567,0-1.386,0-2.395.063-2.08,0-5.041.063-8.57.063h-.126V184.121h0l.126-.126H75.555v.126c0,3.529-.063,6.428-.063,8.57,0,1.008,0,1.764-.063,2.395v.63A.2.2,0,0,1,75.492,195.842Z" transform="translate(-63.552 -183.987)" fill="#1a2e35"/>
          </g>
        </g>
        <g id="Group_865" data-name="Group 865" transform="translate(2.11 19.417)">
          <g id="Group_864" data-name="Group 864">
            <g id="Group_863" data-name="Group 863">
              <g id="Group_862" data-name="Group 862">
                <g id="Group_861" data-name="Group 861">
                  <path id="Path_6453" data-name="Path 6453" d="M66.9,124.782l1.89-1.827,3.592,3.214L79.5,119.3l1.764,1.89-9.137,8.57Z" transform="translate(-66.9 -119.3)" fill="#ff735d"/>
                </g>
              </g>
            </g>
          </g>
        </g>
        <g id="Group_867" data-name="Group 867">
          <g id="Group_866" data-name="Group 866">
            <path id="Path_6454" data-name="Path 6454" d="M75.492,100.342V99.46c0-.567,0-1.386-.063-2.395,0-2.08-.063-4.978-.063-8.444l.126.126H63.771c-.063,0,.252-.252.126-.126h0v11.721l-.126-.126c3.466,0,6.365.063,8.444.063,1.008,0,1.827,0,2.395.063h.063c-.567,0-1.386,0-2.395.063-2.08,0-5.041.063-8.57.063h-.126V88.621h0l.126-.126H75.555v.126c0,3.529-.063,6.428-.063,8.57,0,1.008,0,1.764-.063,2.395v.63A.2.2,0,0,1,75.492,100.342Z" transform="translate(-63.552 -88.487)" fill="#1a2e35"/>
          </g>
        </g>
        <g id="Group_869" data-name="Group 869" transform="translate(19.313 0.828)">
          <g id="Group_868" data-name="Group 868">
            <rect id="Rectangle_2827" data-name="Rectangle 2827" width="49.026" height="1.764" fill="#e1e1e1"/>
          </g>
        </g>
        <g id="Group_871" data-name="Group 871" transform="translate(19.313 4.357)">
          <g id="Group_870" data-name="Group 870">
            <rect id="Rectangle_2828" data-name="Rectangle 2828" width="49.026" height="1.764" fill="#e1e1e1"/>
          </g>
        </g>
        <g id="Group_873" data-name="Group 873" transform="translate(19.313 7.822)">
          <g id="Group_872" data-name="Group 872">
            <rect id="Rectangle_2829" data-name="Rectangle 2829" width="49.026" height="1.764" fill="#e1e1e1"/>
          </g>
        </g>
        <g id="Group_875" data-name="Group 875" transform="translate(19.313 20.299)">
          <g id="Group_874" data-name="Group 874">
            <rect id="Rectangle_2830" data-name="Rectangle 2830" width="30.626" height="1.764" fill="#e1e1e1"/>
          </g>
        </g>
        <g id="Group_877" data-name="Group 877" transform="translate(19.313 23.828)">
          <g id="Group_876" data-name="Group 876">
            <rect id="Rectangle_2831" data-name="Rectangle 2831" width="20.606" height="1.764" fill="#e1e1e1"/>
          </g>
        </g>
        <g id="Group_879" data-name="Group 879" transform="translate(19.313 27.294)">
          <g id="Group_878" data-name="Group 878">
            <rect id="Rectangle_2832" data-name="Rectangle 2832" width="49.026" height="1.764" fill="#e1e1e1"/>
          </g>
        </g>
        <g id="Group_881" data-name="Group 881" transform="translate(19.313 41.41)">
          <g id="Group_880" data-name="Group 880">
            <rect id="Rectangle_2833" data-name="Rectangle 2833" width="41.212" height="1.764" fill="#e1e1e1"/>
          </g>
        </g>
        <g id="Group_883" data-name="Group 883" transform="translate(19.313 44.876)">
          <g id="Group_882" data-name="Group 882">
            <rect id="Rectangle_2834" data-name="Rectangle 2834" width="24.513" height="1.764" fill="#e1e1e1"/>
          </g>
        </g>
        <g id="Group_885" data-name="Group 885" transform="translate(19.313 48.404)">
          <g id="Group_884" data-name="Group 884">
            <rect id="Rectangle_2835" data-name="Rectangle 2835" width="44.93" height="1.764" fill="#e1e1e1"/>
          </g>
        </g>
        <g id="Group_887" data-name="Group 887" transform="translate(19.313 60.882)">
          <g id="Group_886" data-name="Group 886">
            <rect id="Rectangle_2836" data-name="Rectangle 2836" width="43.859" height="1.764" fill="#e1e1e1"/>
          </g>
        </g>
        <g id="Group_889" data-name="Group 889" transform="translate(19.313 64.41)">
          <g id="Group_888" data-name="Group 888">
            <rect id="Rectangle_2837" data-name="Rectangle 2837" width="30.626" height="1.764" fill="#e1e1e1"/>
          </g>
        </g>
        <g id="Group_891" data-name="Group 891" transform="translate(19.313 67.939)">
          <g id="Group_890" data-name="Group 890">
            <rect id="Rectangle_2838" data-name="Rectangle 2838" width="49.026" height="1.764" fill="#e1e1e1"/>
          </g>
        </g>
        <g id="Group_896" data-name="Group 896" transform="translate(2.11 0.387)">
          <g id="Group_895" data-name="Group 895">
            <g id="Group_894" data-name="Group 894">
              <g id="Group_893" data-name="Group 893">
                <g id="Group_892" data-name="Group 892">
                  <path id="Path_6455" data-name="Path 6455" d="M66.9,94.393l1.827-1.827,3.466,3.088L79.062,89.1,80.7,90.864l-8.759,8.255Z" transform="translate(-66.9 -89.1)" fill="#ff735d"/>
                </g>
              </g>
            </g>
          </g>
        </g>
        <g id="Group_901" data-name="Group 901" transform="translate(2.11 39.519)">
          <g id="Group_900" data-name="Group 900">
            <g id="Group_899" data-name="Group 899">
              <g id="Group_898" data-name="Group 898">
                <g id="Group_897" data-name="Group 897">
                  <path id="Path_6456" data-name="Path 6456" d="M66.9,156.493l1.827-1.827,3.466,3.088,6.869-6.554,1.638,1.764-8.759,8.255Z" transform="translate(-66.9 -151.2)" fill="#ff735d"/>
                </g>
              </g>
            </g>
          </g>
        </g>
        <g id="Group_906" data-name="Group 906" transform="translate(2.11 59.243)">
          <g id="Group_905" data-name="Group 905">
            <g id="Group_904" data-name="Group 904">
              <g id="Group_903" data-name="Group 903">
                <g id="Group_902" data-name="Group 902">
                  <path id="Path_6457" data-name="Path 6457" d="M66.9,188.045l1.89-1.89,3.592,3.214L79.5,182.5l1.764,1.89-9.137,8.57Z" transform="translate(-66.9 -182.5)" fill="#ff735d"/>
                </g>
              </g>
            </g>
          </g>
        </g>
      </g>
      <g id="Assessment_Form" data-name="Assessment Form" transform="translate(-79.847 -112.612)">
        <path id="Path_6487" data-name="Path 6487" d="M90.337,131.765H88.456l-.364,1.092H87l1.941-5.157h.971l1.941,5.157H90.7Zm-1.577-.849h1.274l-.667-1.941Z" transform="translate(0)" fill="#666"/>
        <path id="Path_6488" data-name="Path 6488" d="M97.605,132.551a.334.334,0,0,0-.182-.3,2.46,2.46,0,0,0-.607-.182c-.91-.182-1.4-.607-1.4-1.153a.984.984,0,0,1,.425-.849,1.694,1.694,0,0,1,1.092-.364,1.749,1.749,0,0,1,1.153.364,1.092,1.092,0,0,1,.425.91H97.484a.862.862,0,0,0-.121-.364c-.061-.121-.243-.121-.425-.121a.877.877,0,0,0-.425.121c-.121.061-.121.182-.121.3s.061.182.182.3.3.121.546.182.485.121.667.182a1.023,1.023,0,0,1,.789,1.031.984.984,0,0,1-.425.849,1.73,1.73,0,0,1-1.153.3,1.938,1.938,0,0,1-.849-.182,1.541,1.541,0,0,1-.607-.485,1.011,1.011,0,0,1-.243-.667h1.031a.551.551,0,0,0,.182.425.654.654,0,0,0,.485.121.707.707,0,0,0,.425-.121A.516.516,0,0,0,97.605,132.551Z" transform="translate(-3.264 -0.787)" fill="#666"/>
        <path id="Path_6489" data-name="Path 6489" d="M103.805,132.551a.334.334,0,0,0-.182-.3,2.461,2.461,0,0,0-.607-.182c-.91-.182-1.4-.607-1.4-1.153a.984.984,0,0,1,.425-.849,1.694,1.694,0,0,1,1.092-.364,1.749,1.749,0,0,1,1.153.364,1.092,1.092,0,0,1,.425.91h-1.031a.862.862,0,0,0-.121-.364c-.061-.121-.243-.121-.425-.121a.877.877,0,0,0-.425.121c-.121.061-.121.182-.121.3s.061.182.182.3.3.121.546.182.485.121.667.182a1.023,1.023,0,0,1,.789,1.031.984.984,0,0,1-.425.849,1.73,1.73,0,0,1-1.153.3,1.938,1.938,0,0,1-.849-.182,1.541,1.541,0,0,1-.607-.485,1.011,1.011,0,0,1-.243-.667h.971a.551.551,0,0,0,.182.425.654.654,0,0,0,.485.121.707.707,0,0,0,.425-.121C103.623,132.794,103.805,132.673,103.805,132.551Z" transform="translate(-5.703 -0.787)" fill="#666"/>
        <path id="Path_6490" data-name="Path 6490" d="M109.641,133.7a1.922,1.922,0,0,1-1.4-.546,1.828,1.828,0,0,1-.546-1.4V131.7a1.994,1.994,0,0,1,.243-1.031,2.428,2.428,0,0,1,.607-.728,1.787,1.787,0,0,1,2.123.243,1.926,1.926,0,0,1,.425,1.4v.425h-2.427a1.156,1.156,0,0,0,.3.607.779.779,0,0,0,.607.243.958.958,0,0,0,.91-.425l.485.546a1.54,1.54,0,0,1-.607.485A1.3,1.3,0,0,1,109.641,133.7Zm-.121-3.155a.689.689,0,0,0-.485.182,1.408,1.408,0,0,0-.243.607h1.456v-.061a.644.644,0,0,0-.728-.728Z" transform="translate(-8.141 -0.787)" fill="#666"/>
        <path id="Path_6491" data-name="Path 6491" d="M116.405,132.551a.334.334,0,0,0-.182-.3,2.46,2.46,0,0,0-.607-.182c-.91-.182-1.4-.607-1.4-1.153a.984.984,0,0,1,.425-.849,1.694,1.694,0,0,1,1.092-.364,1.749,1.749,0,0,1,1.153.364,1.092,1.092,0,0,1,.425.91h-1.031a.862.862,0,0,0-.121-.364c-.061-.121-.243-.121-.425-.121a.877.877,0,0,0-.425.121c-.121.061-.121.182-.121.3s.061.182.182.3.3.121.546.182.485.121.667.182a1.023,1.023,0,0,1,.789,1.031.984.984,0,0,1-.425.849,1.73,1.73,0,0,1-1.153.3,1.938,1.938,0,0,1-.849-.182,1.541,1.541,0,0,1-.607-.485,1.011,1.011,0,0,1-.243-.667h.971a.551.551,0,0,0,.182.425.654.654,0,0,0,.485.121.707.707,0,0,0,.425-.121C116.223,132.794,116.405,132.673,116.405,132.551Z" transform="translate(-10.659 -0.787)" fill="#666"/>
        <path id="Path_6492" data-name="Path 6492" d="M122.645,132.551a.334.334,0,0,0-.182-.3,2.46,2.46,0,0,0-.607-.182c-.91-.182-1.4-.607-1.4-1.153a.984.984,0,0,1,.425-.849,1.694,1.694,0,0,1,1.092-.364,1.749,1.749,0,0,1,1.153.364,1.092,1.092,0,0,1,.425.91h-.971a.862.862,0,0,0-.121-.364c-.061-.121-.243-.121-.425-.121a.877.877,0,0,0-.425.121c-.121.061-.121.182-.121.3s.061.182.182.3.3.121.546.182.485.121.667.182a1.023,1.023,0,0,1,.789,1.031.984.984,0,0,1-.425.849,1.73,1.73,0,0,1-1.153.3,1.938,1.938,0,0,1-.849-.182,1.541,1.541,0,0,1-.607-.485,1.011,1.011,0,0,1-.243-.667h.971a.551.551,0,0,0,.182.425.654.654,0,0,0,.485.121.707.707,0,0,0,.425-.121A.516.516,0,0,0,122.645,132.551Z" transform="translate(-13.136 -0.787)" fill="#666"/>
        <path id="Path_6493" data-name="Path 6493" d="M127.81,129.761l.061.425a1.247,1.247,0,0,1,1.092-.485,1.015,1.015,0,0,1,1.031.607,1.381,1.381,0,0,1,1.153-.607,1.065,1.065,0,0,1,.91.364,1.8,1.8,0,0,1,.3,1.092v2.427h-1.031v-2.427a.94.94,0,0,0-.121-.485c-.061-.121-.243-.121-.425-.121a.656.656,0,0,0-.667.425v2.669h-1.031v-2.427a.94.94,0,0,0-.121-.485c-.061-.121-.243-.121-.425-.121a.609.609,0,0,0-.607.364v2.73H126.9v-3.822h.91Z" transform="translate(-15.693 -0.787)" fill="#666"/>
        <path id="Path_6494" data-name="Path 6494" d="M138.941,133.7a1.922,1.922,0,0,1-1.4-.546,1.828,1.828,0,0,1-.546-1.4V131.7a1.994,1.994,0,0,1,.243-1.031,2.428,2.428,0,0,1,.607-.728,1.787,1.787,0,0,1,2.123.243,1.926,1.926,0,0,1,.425,1.4v.425h-2.427a1.156,1.156,0,0,0,.3.607.779.779,0,0,0,.607.243.958.958,0,0,0,.91-.425l.485.546a1.54,1.54,0,0,1-.607.485A1.487,1.487,0,0,1,138.941,133.7Zm-.121-3.155a.689.689,0,0,0-.485.182,1.408,1.408,0,0,0-.243.607h1.456v-.061a.742.742,0,0,0-.182-.546A.978.978,0,0,0,138.82,130.549Z" transform="translate(-19.665 -0.787)" fill="#666"/>
        <path id="Path_6495" data-name="Path 6495" d="M144.671,129.761l.061.425a1.317,1.317,0,0,1,1.092-.485,1.065,1.065,0,0,1,.91.364,1.8,1.8,0,0,1,.3,1.092v2.487h-1.031v-2.487a.94.94,0,0,0-.121-.485c-.061-.121-.243-.121-.485-.121a.761.761,0,0,0-.667.364v2.73H143.7v-3.822h.971Z" transform="translate(-22.3 -0.787)" fill="#666"/>
        <path id="Path_6496" data-name="Path 6496" d="M151.477,128.3v.971h.667V130h-.667v1.941a.455.455,0,0,0,.061.3.464.464,0,0,0,.3.121h.3v.789a2.156,2.156,0,0,1-.607.121.965.965,0,0,1-1.092-1.092V130.12H149.9v-.728h.546v-.971h1.031Z" transform="translate(-24.739 -0.236)" fill="#666"/>
        <path id="Path_6497" data-name="Path 6497" d="M160.655,130.733h-2.063v2.123H157.5V127.7h3.4v.849h-2.305v1.335h2.063Z" transform="translate(-27.728)" fill="#666"/>
        <path id="Path_6498" data-name="Path 6498" d="M163.7,131.641a1.994,1.994,0,0,1,.243-1.031,1.642,1.642,0,0,1,.607-.667,2.286,2.286,0,0,1,.971-.243,1.738,1.738,0,0,1,1.274.485,2.06,2.06,0,0,1,.546,1.274v.243a1.775,1.775,0,0,1-1.82,1.941,1.784,1.784,0,0,1-1.335-.546,1.851,1.851,0,0,1-.485-1.456Zm1.031.061a1.607,1.607,0,0,0,.182.849.747.747,0,0,0,.607.3.843.843,0,0,0,.607-.3c.182-.182.182-.485.182-.91a1.762,1.762,0,0,0-.182-.849.616.616,0,0,0-.607-.3.843.843,0,0,0-.607.3A2.026,2.026,0,0,0,164.731,131.7Z" transform="translate(-30.167 -0.787)" fill="#666"/>
        <path id="Path_6499" data-name="Path 6499" d="M172.884,130.771h-.364a.77.77,0,0,0-.789.425v2.487H170.7v-3.822h.971v.485a.915.915,0,0,1,.849-.546.454.454,0,0,1,.3.061Z" transform="translate(-32.92 -0.826)" fill="#666"/>
        <path id="Path_6500" data-name="Path 6500" d="M176.11,129.761l.061.425a1.247,1.247,0,0,1,1.092-.485,1.015,1.015,0,0,1,1.031.607,1.381,1.381,0,0,1,1.153-.607,1.065,1.065,0,0,1,.91.364,1.8,1.8,0,0,1,.3,1.092v2.427h-1.031v-2.427a.94.94,0,0,0-.121-.485c-.061-.121-.243-.121-.425-.121a.656.656,0,0,0-.667.425v2.669h-1.031v-2.427a.94.94,0,0,0-.121-.485c-.061-.121-.243-.121-.425-.121a.609.609,0,0,0-.607.364v2.73H175.2v-3.822h.91Z" transform="translate(-34.69 -0.787)" fill="#666"/>
      </g>
    </g>
    <g id="XMLID_63_" transform="translate(94.196 60.952)">
      <path id="XMLID_65_" d="M208.735,108.258a3.586,3.586,0,0,0-.378-5.041l-2.9-2.521a3.587,3.587,0,0,0-5.041.378L180,124.642l8.255,7.184Z" transform="translate(-154.101 -99.247)" fill="#ff735d"/>
      <rect id="XMLID_66_" width="26.971" height="10.965" transform="translate(8.198 45.767) rotate(-48.998)" fill="#2d2d2d"/>
      <path id="XMLID_62_" d="M140.286,197.543,138.9,197.1l1.512-1.7,1.008.882Z" transform="translate(-138.9 -134.59)" fill="#ff735d"/>
      <path id="XMLID_68_" d="M154.909,178.371l-6.554-5.671-5.86,6.743-.819,5.734-1.575,1.764,1.89,1.638,1.575-1.827,5.482-1.575Z" transform="translate(-139.344 -126.195)" fill="#111"/>
      <rect id="XMLID_69_" width="8.696" height="0.504" transform="translate(9.054 46.512) rotate(41.002)" fill="#111"/>
    </g>
  </g>
</svg>
