<svg xmlns="http://www.w3.org/2000/svg" xmlns:xlink="http://www.w3.org/1999/xlink" width="167" height="167" viewBox="0 0 167 167">
  <defs>
    <linearGradient id="linear-gradient" x1="0.25" y1="0.067" x2="0.75" y2="0.933" gradientUnits="objectBoundingBox">
      <stop offset="0" stop-color="#158bff"/>
      <stop offset="0.299" stop-color="#15b8ea"/>
      <stop offset="0.604" stop-color="#15ded7"/>
      <stop offset="0.849" stop-color="#15f6cb"/>
      <stop offset="1" stop-color="#15ffc7"/>
    </linearGradient>
  </defs>
  <g id="Group_957" data-name="Group 957" transform="translate(-868.5 -327)">
    <g id="Group_909" data-name="Group 909" transform="translate(868.497 326.999)">
      <circle id="Ellipse_73" data-name="Ellipse 73" cx="83.5" cy="83.5" r="83.5" transform="translate(0.002 0.001)" fill="#fff"/>
    </g>
    <g id="Group_910" data-name="Group 910" transform="translate(880.304 338.807)">
      <circle id="Ellipse_74" data-name="Ellipse 74" cx="71.695" cy="71.695" r="71.695" fill="url(#linear-gradient)"/>
    </g>
    <g id="Group_958" data-name="Group 958" transform="translate(-1 -244)">
      <path id="Path_6541" data-name="Path 6541" d="M156.492,128.108h-.2v-8.669a5.436,5.436,0,0,0-5.436-5.43H144.1a5.4,5.4,0,0,0-3.745,1.492,8.856,8.856,0,0,0,.35-2.453,9,9,0,1,0-17.994,0,8.6,8.6,0,0,0,.069,1.067l-10.692,1.049a4.581,4.581,0,0,0-.73-1.248,4.7,4.7,0,0,0-3.558-1.635,4.65,4.65,0,0,0-4.313,2.859l-6.279,2.5a2.035,2.035,0,0,1-1.074.112l-19.511-3.308a10.13,10.13,0,0,0-3.389,0L53.6,117.722a5.411,5.411,0,0,0-1.148,10.348H47.293a1.773,1.773,0,0,0-1.773,1.766v23.505a1.773,1.773,0,0,0,1.773,1.766H58.071a1.773,1.773,0,0,0,1.773-1.766v-4.868h84.1v4.868a1.773,1.773,0,0,0,1.773,1.766h10.779a1.773,1.773,0,0,0,1.773-1.766V129.874A1.773,1.773,0,0,0,156.492,128.108Zm-14.287-8.669a1.872,1.872,0,0,1,1.872-1.872h6.772a1.872,1.872,0,0,1,1.872,1.872v8.669H142.205Zm-3.483-.761a5.15,5.15,0,0,0-.062.761v8.669H124.611a14.355,14.355,0,0,0,6.429-6.1c.225,0,.449.031.68.031A8.987,8.987,0,0,0,138.723,118.677Zm-7-11.091a5.461,5.461,0,1,1-5.461,5.461A5.461,5.461,0,0,1,131.72,107.586ZM127.519,121a10.791,10.791,0,0,1-6.042,4.544l-9.986,2.9a4.825,4.825,0,0,1-4.188-.749l-.156-.119a4.787,4.787,0,0,1-1.822-4.887l1.323-5.948a1.142,1.142,0,0,1,2.241.424l-1.086,6.959a1.773,1.773,0,0,0,.624,1.635,1.754,1.754,0,0,0,1.71.312l11.235-3.9a1.773,1.773,0,1,0-1.161-3.345l-8.463,2.933.481-3.071,11.69-1.123a9.119,9.119,0,0,0,3.6,3.433ZM49.059,131.647h51.123a1.766,1.766,0,0,0,.749-3.37,1.71,1.71,0,0,0-.687-.349l-22.794-5.748h-.037a10.124,10.124,0,0,0-3.851-.137l-18.8,2.908a1.829,1.829,0,0,1-1.417-.356,1.872,1.872,0,0,1,.818-3.333l19.642-3.289a6.765,6.765,0,0,1,2.216,0l19.5,3.308a5.536,5.536,0,0,0,2.983-.318l3.945-1.573-.562,2.54a8.338,8.338,0,0,0,3.171,8.5l.156.119a8.413,8.413,0,0,0,4.993,1.629,8.321,8.321,0,0,0,2.309-.325l.674-.2h25.746a1.779,1.779,0,0,0,.749-.169,1.729,1.729,0,0,0,.743.169h14.293v13.325H49.059Zm8.432-3.539,16.615-2.578a6.722,6.722,0,0,1,2.5.087l9.868,2.5Zm-1.186,23.5H49.059v-3.121h7.246Zm98.42,0h-7.24v-3.121h7.24Z" transform="translate(851.603 533.374)" fill="#fff"/>
      <path id="Path_6542" data-name="Path 6542" d="M118.887,55.851h-7.365V48.492a4.669,4.669,0,0,0-4.662-4.662h-5.811a4.669,4.669,0,0,0-4.662,4.662v7.346H89.022A4.669,4.669,0,0,0,84.36,60.5v5.817a4.669,4.669,0,0,0,4.662,4.662h7.359v7.365a4.669,4.669,0,0,0,4.662,4.662h5.811a4.669,4.669,0,0,0,4.662-4.662V70.986h7.371a4.675,4.675,0,0,0,4.669-4.662V60.513a4.675,4.675,0,0,0-4.669-4.662Zm1.629,10.473a1.629,1.629,0,0,1-1.629,1.623H108.477v10.4a1.629,1.629,0,0,1-1.623,1.623h-5.811a1.629,1.629,0,0,1-1.629-1.623V69.482h0V67.94H89.022A1.623,1.623,0,0,1,87.4,66.318V60.5a1.623,1.623,0,0,1,1.623-1.623h10.4V48.492a1.623,1.623,0,0,1,1.623-1.623h5.811a1.623,1.623,0,0,1,1.617,1.623V58.915h10.4a1.629,1.629,0,0,1,1.629,1.629Z" transform="translate(837.005 555.918)" fill="#fff"/>
    </g>
  </g>
</svg>
