<svg id="Group_402" data-name="Group 402" xmlns="http://www.w3.org/2000/svg" xmlns:xlink="http://www.w3.org/1999/xlink" width="28.658" height="28.658" viewBox="0 0 28.658 28.658">
  <defs>
    <clipPath id="clip-path">
      <rect width="11.149" height="11.149" fill="none"/>
    </clipPath>
  </defs>
  <g id="Path_2745" data-name="Path 2745" fill="none">
    <path d="M0,0H28.658V28.658H0Z" stroke="none"/>
    <path d="M 0.9999942779541016 0.9999942779541016 L 0.9999942779541016 27.65822410583496 L 27.65822410583496 27.65822410583496 L 27.65822410583496 0.9999942779541016 L 0.9999942779541016 0.9999942779541016 M -5.7220458984375e-06 -5.7220458984375e-06 L 28.65822410583496 -5.7220458984375e-06 L 28.65822410583496 28.65822410583496 L -5.7220458984375e-06 28.65822410583496 L -5.7220458984375e-06 -5.7220458984375e-06 Z" stroke="none" fill="#707070"/>
  </g>
  <g id="Component_71_1" data-name="Component 71 – 1" transform="translate(8.591 8.6)" clip-path="url(#clip-path)">
    <path id="Union_3" data-name="Union 3" d="M5.574,6.588,1.013,11.149,0,10.135,4.561,5.574,0,1.013,1.013,0,5.574,4.561,10.135,0l1.014,1.013L6.588,5.574l4.561,4.561-1.014,1.014Z" fill="#707070"/>
  </g>
</svg>
