<?xml version="1.0" encoding="UTF-8"?><svg id="Layer_1" xmlns="http://www.w3.org/2000/svg" xmlns:xlink="http://www.w3.org/1999/xlink" viewBox="0 0 268.49 268.49"><defs><style>.cls-1{fill:#fff;}.cls-2{fill:#ff735d;}.cls-3{fill:url(#linear-gradient);}.cls-4{fill:#ff915d;}</style><linearGradient id="linear-gradient" x1="77.69" y1="36.3" x2="190.79" y2="232.19" gradientTransform="translate(234.05 -27.25) rotate(76.72)" gradientUnits="userSpaceOnUse"><stop offset="0" stop-color="#158bff"/><stop offset=".3" stop-color="#15b7e9"/><stop offset=".6" stop-color="#15ded6"/><stop offset=".85" stop-color="#15f6cb"/><stop offset="1" stop-color="#15ffc7"/></linearGradient></defs><g><circle class="cls-1" cx="134.24" cy="134.24" r="132.5" transform="translate(-19.77 245.25) rotate(-80.78)"/><circle class="cls-3" cx="134.24" cy="134.24" r="113.08" transform="translate(-27.25 234.05) rotate(-76.72)"/></g><g><path class="cls-2" d="M204.99,132.1c-5.28-10.88-15.54-18.61-27.44-20.68-11.27-1.96-22.68,1.23-31.3,8.77l-1.55,1.36c-4.23,3.7-7.4,8.47-9.18,13.8l-.47,1.4-14.95,10.74c-.78,.56-.98,1.65-.44,2.45l5.7,8.56-2.4,13.52c-.69,3.88-1.04,7.84-1.04,11.77,0,4.22,2.84,7.93,6.92,9.02l6.33,1.71c2.01,.54,4.05,.97,6.11,1.3v22.24c0,.99,.8,1.79,1.79,1.79s1.79-.8,1.79-1.79v-21.78c1.3,.13,2.61,.22,3.91,.26,7.68,.24,15.45-2.22,21.88-6.97,.8-.59,.96-1.71,.38-2.5-.59-.8-1.71-.96-2.5-.38-5.78,4.27-12.76,6.5-19.64,6.27-4.32-.14-8.62-.78-12.78-1.9l-6.33-1.71c-2.51-.68-4.27-2.97-4.27-5.57,0-3.73,.33-7.48,.98-11.15l2.52-14.23c.08-.45-.02-.92-.27-1.31l-5.14-7.72,14.02-10.07c.31-.22,.53-.53,.65-.89l.65-1.95c1.57-4.72,4.39-8.96,8.14-12.24l1.55-1.36c7.79-6.82,18.12-9.71,28.32-7.93,10.78,1.88,20.06,8.88,24.84,18.72,4.58,9.45,4.43,20.65-.43,29.97l-12.08,23.19c-.16,.31-.23,.67-.19,1.02l3.21,30.41c.1,.92,.87,1.6,1.78,1.6,.06,0,.13,0,.19,0,.98-.1,1.7-.99,1.59-1.97l-3.16-29.87,11.83-22.71c5.37-10.32,5.55-22.72,.47-33.19Z"/><path class="cls-2" d="M190.04,162.25c-5.54-6.06-15.48,1.36-15.9,1.68-.79,.6-.94,1.72-.34,2.51,.6,.79,1.72,.94,2.51,.35,.08-.06,7.8-5.72,11.09-2.12,.92,1.01,1.21,2.57,.86,4.63-.83,4.85-4.83,10.19-7.13,11.43-3.42,1.83-6.6,.1-6.73,.03-.85-.49-1.95-.2-2.45,.66-.49,.86-.2,1.95,.66,2.45,.13,.08,2.28,1.29,5.23,1.29,1.51,0,3.22-.32,4.98-1.26,3.42-1.83,7.98-8.2,8.97-13.98,.54-3.16-.06-5.81-1.74-7.65Z"/></g><path class="cls-4" d="M102.48,124.82h-10.99v-10.98c0-3.84-3.12-6.96-6.96-6.96h-8.67c-3.84,0-6.96,3.12-6.96,6.96v10.97h-10.99c-3.84,0-6.96,3.12-6.96,6.96v8.67c0,3.84,3.12,6.96,6.96,6.96h10.98v10.99c0,3.84,3.12,6.96,6.96,6.96h8.67c3.84,0,6.96-3.12,6.96-6.96v-10.98h11.01c3.84,0,6.96-3.12,6.96-6.96v-8.67c0-3.84-3.12-6.96-6.96-6.96Zm2.42,15.63c0,1.34-1.09,2.42-2.42,2.42h-13.25s-.01,0-.02,0h-2.27v15.52c0,1.34-1.09,2.42-2.42,2.42h-8.67c-1.34,0-2.42-1.09-2.42-2.42v-13.23s0-.02,0-.03v-2.27h-15.52c-1.34,0-2.42-1.09-2.42-2.42v-8.67c0-1.34,1.09-2.42,2.42-2.42h13.13s.09,.01,.14,.01h2.27v-15.52c0-1.34,1.09-2.42,2.42-2.42h8.67c1.34,0,2.42,1.09,2.42,2.42v15.52h2.27s.02,0,.03,0h13.23c1.34,0,2.42,1.09,2.42,2.42v8.67Z"/><g><path class="cls-1" d="M60.36,89.25c-2.05-1.04-3.63-2.54-4.75-4.5s-1.67-4.25-1.67-6.88,.56-4.93,1.67-6.88c1.11-1.96,2.7-3.46,4.75-4.52,2.05-1.05,4.43-1.58,7.13-1.58,1.78,0,3.37,.18,4.76,.53,1.4,.36,2.69,.91,3.88,1.67v5.97c-1.04-.83-2.22-1.43-3.54-1.81-1.32-.38-2.83-.57-4.53-.57-2.44,0-4.33,.63-5.65,1.9-1.33,1.27-1.99,3.03-1.99,5.28s.67,4.02,2.01,5.3c1.34,1.28,3.22,1.92,5.64,1.92,1.71,0,3.24-.2,4.59-.61,1.35-.4,2.61-1.04,3.77-1.92v5.94c-2.25,1.54-5.23,2.31-8.93,2.31-2.7,0-5.08-.52-7.13-1.56Z"/><path class="cls-1" d="M83.87,89.18c-2.03-1.09-3.63-2.61-4.8-4.57-1.17-1.96-1.76-4.2-1.76-6.74s.59-4.79,1.76-6.76c1.17-1.97,2.77-3.5,4.8-4.59,2.03-1.09,4.3-1.64,6.81-1.64s4.75,.55,6.77,1.64c2.03,1.09,3.62,2.62,4.78,4.59,1.16,1.97,1.74,4.22,1.74,6.76s-.58,4.78-1.74,6.74c-1.16,1.96-2.76,3.48-4.78,4.57-2.03,1.09-4.29,1.64-6.77,1.64s-4.78-.54-6.81-1.64Zm10.26-5.12c1.04-.57,1.87-1.39,2.49-2.45,.62-1.07,.93-2.31,.93-3.73s-.3-2.66-.91-3.72-1.43-1.87-2.47-2.45c-1.04-.58-2.2-.87-3.49-.87s-2.48,.29-3.52,.87c-1.04,.58-1.87,1.4-2.47,2.45s-.91,2.29-.91,3.72,.3,2.67,.91,3.73c.6,1.07,1.43,1.88,2.49,2.45,1.05,.57,2.22,.85,3.5,.85s2.41-.28,3.45-.85Z"/><path class="cls-1" d="M103.45,65.42h6.72l6.33,16.54,6.33-16.54h6.69l-9.92,24.86h-6.19l-9.96-24.86Z"/><path class="cls-1" d="M132,65.42h6.29v24.86h-6.29v-24.86Z"/><path class="cls-1" d="M141.5,65.42h8.93c2.73,0,5.11,.5,7.15,1.49,2.04,1,3.61,2.42,4.71,4.29,1.1,1.86,1.65,4.04,1.65,6.53,0,4.13-1.21,7.25-3.63,9.37-2.42,2.12-5.77,3.18-10.06,3.18h-8.75v-24.86Zm9.28,19.56c2.16,0,3.81-.65,4.96-1.96,1.15-1.3,1.73-3.07,1.73-5.3,0-2.04-.58-3.72-1.73-5.03-1.15-1.32-2.73-1.97-4.75-1.97h-3.2v14.26h2.99Z"/><path class="cls-1" d="M165.72,77.02h12.66v4.98h-12.66v-4.98Z"/><path class="cls-1" d="M185.21,72.43l-5.05,3.66v-6.19l6.12-4.48h5.23v24.86h-6.3v-17.85Z"/><path class="cls-1" d="M197.4,90.21v-5.33c1.09,.57,2.43,.85,4.02,.85,1.8,0,3.28-.47,4.43-1.42,1.15-.95,1.84-2.36,2.08-4.23-.57,.59-1.35,1.06-2.35,1.41s-2.08,.52-3.24,.52c-1.64,0-3.08-.33-4.34-1-1.26-.66-2.24-1.62-2.95-2.88-.71-1.26-1.07-2.75-1.07-4.48s.39-3.18,1.16-4.5,1.92-2.35,3.45-3.11c1.53-.76,3.38-1.14,5.57-1.14,3.3,0,5.85,1.01,7.66,3.04,1.81,2.03,2.72,4.82,2.72,8.38,0,3.08-.54,5.71-1.62,7.9-1.08,2.18-2.57,3.83-4.46,4.94-1.9,1.11-4.08,1.67-6.54,1.67-1.76,0-3.26-.2-4.52-.6Zm9.39-14.12c.71-.71,1.07-1.58,1.07-2.6s-.36-1.92-1.07-2.63c-.71-.71-1.59-1.07-2.63-1.07s-1.89,.36-2.6,1.08c-.71,.72-1.07,1.59-1.07,2.61s.36,1.89,1.07,2.6c.71,.71,1.58,1.07,2.6,1.07s1.92-.36,2.63-1.07Z"/></g></svg>