<svg xmlns="http://www.w3.org/2000/svg" xmlns:xlink="http://www.w3.org/1999/xlink" width="167" height="167" viewBox="0 0 167 167">
  <defs>
    <linearGradient id="linear-gradient" x1="0.25" y1="0.067" x2="0.75" y2="0.933" gradientUnits="objectBoundingBox">
      <stop offset="0" stop-color="#158bff"/>
      <stop offset="0.299" stop-color="#15b8ea"/>
      <stop offset="0.604" stop-color="#15ded7"/>
      <stop offset="0.849" stop-color="#15f6cb"/>
      <stop offset="1" stop-color="#15ffc7"/>
    </linearGradient>
  </defs>
  <g id="Group_962" data-name="Group 962" transform="translate(-1076.5 -327)">
    <g id="Group_953" data-name="Group 953" transform="translate(1076.498 326.999)">
      <circle id="Ellipse_73" data-name="Ellipse 73" cx="83.5" cy="83.5" r="83.5" transform="translate(0.002 0.001)" fill="#fff"/>
    </g>
    <g id="Group_952" data-name="Group 952" transform="translate(1088.304 338.807)">
      <circle id="Ellipse_74" data-name="Ellipse 74" cx="71.695" cy="71.695" r="71.695" fill="url(#linear-gradient)"/>
    </g>
    <g id="Group_954" data-name="Group 954" transform="translate(1135.673 364.874)">
      <path id="Path_6534" data-name="Path 6534" d="M164.676,62.585A31.251,31.251,0,0,0,116,52.712l-1.288,1.128a26.216,26.216,0,0,0-7.6,11.434l-.386,1.187-12.39,8.9a1.484,1.484,0,0,0-.368,2.03l4.749,7.088L96.719,95.694a55.989,55.989,0,0,0-.855,9.754,7.759,7.759,0,0,0,5.729,7.48l5.248,1.413a49.274,49.274,0,0,0,5.064,1.08v18.4a1.484,1.484,0,1,0,2.968,0V115.777q1.615.16,3.241.214a29.238,29.238,0,0,0,18.136-5.77,1.484,1.484,0,0,0-1.781-2.375,26.121,26.121,0,0,1-16.278,5.195,46.7,46.7,0,0,1-10.609-1.555l-5.248-1.413a4.791,4.791,0,0,1-3.532-4.619,52.972,52.972,0,0,1,.811-9.225l2.092-11.8a1.49,1.49,0,0,0-.226-1.086l-4.263-6.423,11.618-8.347a1.526,1.526,0,0,0,.54-.736l.54-1.621a23.218,23.218,0,0,1,6.744-10.14l1.282-1.128A28.282,28.282,0,0,1,162,63.885a27.76,27.76,0,0,1-.35,24.833l-10.009,19.2a1.484,1.484,0,0,0-.16.843l2.66,25.2a1.484,1.484,0,0,0,1.478,1.33h.154a1.5,1.5,0,0,0,1.324-1.633L154.483,108.9l9.8-18.789A30.758,30.758,0,0,0,164.676,62.585Z" transform="translate(-93.708 -44.987)" fill="#fff"/>
      <path id="Path_6535" data-name="Path 6535" d="M181.947,115.372c-4.589-5.028-12.823,1.128-13.173,1.4a1.484,1.484,0,1,0,1.781,2.375c.065-.048,6.465-4.749,9.19-1.781a4.408,4.408,0,0,1,.712,3.841c-.689,4.025-4.007,8.448-5.937,9.469a6.115,6.115,0,0,1-5.574,0,1.484,1.484,0,1,0-1.484,2.571,9.333,9.333,0,0,0,4.334,1.069,8.638,8.638,0,0,0,4.156-1.045c2.832-1.52,6.613-6.8,7.433-11.588A7.186,7.186,0,0,0,181.947,115.372Z" transform="translate(-121.645 -70.068)" fill="#fff"/>
    </g>
    <path id="Path_6536" data-name="Path 6536" d="M67,113.081a3.562,3.562,0,0,0-5.022,0l-3.325,3.325a3.562,3.562,0,0,0-.546,4.31L36.143,142.681a.9.9,0,0,0,0,1.259.879.879,0,0,0,.629.261.861.861,0,0,0,.629-.261l21.966-21.966a3.562,3.562,0,0,0,4.3-.546L67,118.1a3.562,3.562,0,0,0,0-5.016Zm-1.259,3.758-3.33,3.325a1.781,1.781,0,0,1-2.5,0h0a1.781,1.781,0,0,1,0-2.5l3.325-3.324a1.781,1.781,0,0,1,2.505,2.5Z" transform="translate(1064.339 294.403)" fill="#fff"/>
  </g>
</svg>
