<svg xmlns="http://www.w3.org/2000/svg" xmlns:xlink="http://www.w3.org/1999/xlink" width="167" height="167" viewBox="0 0 167 167">
  <defs>
    <linearGradient id="linear-gradient" x1="0.25" y1="0.067" x2="0.75" y2="0.933" gradientUnits="objectBoundingBox">
      <stop offset="0" stop-color="#158bff"/>
      <stop offset="0.299" stop-color="#15b8ea"/>
      <stop offset="0.604" stop-color="#15ded7"/>
      <stop offset="0.849" stop-color="#15f6cb"/>
      <stop offset="1" stop-color="#15ffc7"/>
    </linearGradient>
  </defs>
  <g id="Group_990" data-name="Group 990" transform="translate(-899.5 -323)">
    <g id="Group_957" data-name="Group 957" transform="translate(31 -4)">
      <g id="Group_909" data-name="Group 909" transform="translate(868.497 326.999)">
        <circle id="Ellipse_73" data-name="Ellipse 73" cx="83.5" cy="83.5" r="83.5" transform="translate(0.002 0.001)" fill="#fff"/>
      </g>
      <g id="Group_910" data-name="Group 910" transform="translate(880.304 338.807)">
        <circle id="Ellipse_74" data-name="Ellipse 74" cx="71.695" cy="71.695" r="71.695" fill="url(#linear-gradient)"/>
      </g>
    </g>
    <g id="Group_989" data-name="Group 989" transform="translate(887.004 306.597)">
      <g id="Group_985" data-name="Group 985" transform="translate(42.934 71.266)">
        <g id="Group_984" data-name="Group 984" transform="translate(11.48 0)">
          <path id="Path_6628" data-name="Path 6628" d="M68.21,103.975a9.125,9.125,0,1,1,9.125,9.125A9.137,9.137,0,0,1,68.21,103.975Zm3.588,0a5.531,5.531,0,1,0,5.531-5.531A5.537,5.537,0,0,0,71.8,103.975Z" transform="translate(-68.21 -94.85)" fill="#fff"/>
          <path id="Path_6629" data-name="Path 6629" d="M106.509,128.833a8.478,8.478,0,0,0,5.044-1.658l.158-.12a8.443,8.443,0,0,0,3.215-8.619l-1.342-6.031a4.716,4.716,0,0,0-4.632-3.715,4.741,4.741,0,0,0-4.689,5.474l.639,4.113L96.327,115.3A1.8,1.8,0,1,0,95.15,118.7l11.4,3.955a1.8,1.8,0,0,0,2.367-1.968l-1.1-7.062a1.157,1.157,0,0,1,2.272-.43l1.342,6.031a4.855,4.855,0,0,1-1.848,4.955l-.158.12a4.87,4.87,0,0,1-4.246.759L95.08,122.119a10.934,10.934,0,0,1-6.55-5.309,1.8,1.8,0,0,0-3.164,1.7,14.566,14.566,0,0,0,8.708,7.062l10.094,2.936a8.455,8.455,0,0,0,2.348.335Z" transform="translate(-74.431 -99.932)" fill="#fff"/>
          <path id="Path_6630" data-name="Path 6630" d="M109.182,116.3a1.8,1.8,0,0,0,.171-3.582l-13.486-1.3A1.8,1.8,0,1,0,95.519,115L109,116.3c.057,0,.114.006.177.006Z" transform="translate(-77.641 -100.933)" fill="#fff"/>
          <path id="Path_6631" data-name="Path 6631" d="M127.911,128.192a1.762,1.762,0,0,0,.994.032L152,122.408a6.714,6.714,0,0,1,2.538-.089l19.061,2.955a5.487,5.487,0,0,0,1.74-10.834l-19.909-3.329a10.437,10.437,0,0,0-3.436,0l-19.782,3.354a2.063,2.063,0,0,1-1.088-.114l-12.378-4.936a1.8,1.8,0,0,0-1.335,3.335l12.378,4.936a5.654,5.654,0,0,0,3.019.323l19.782-3.354a6.694,6.694,0,0,1,2.247,0l19.909,3.329a1.895,1.895,0,0,1-.608,3.74l-19.061-2.955a10.394,10.394,0,0,0-3.9.139h-.038l-23.111,5.835a1.793,1.793,0,0,0-1.3,2.177,1.812,1.812,0,0,0,1.19,1.272Z" transform="translate(-85.859 -100.151)" fill="#fff"/>
        </g>
        <path id="Path_6632" data-name="Path 6632" d="M152.329,136.27H54.955a4.888,4.888,0,0,0-4.885,4.885v2.152a4.888,4.888,0,0,0,4.885,4.885H89.508v.551H88.242v11.524h1.266v2.164H80.427a3.882,3.882,0,0,0-3.538,2.228,7.757,7.757,0,0,0-7.714,7.752v.772a6.061,6.061,0,1,0,4.037-.2v-.57a3.714,3.714,0,0,1,3.708-3.708h.652a3.938,3.938,0,0,0,2.848,1.215h4.664l6.518,7.176H122.51l5.1-7.176h3.183a3.914,3.914,0,0,0,2.848-1.215h.614a3.714,3.714,0,0,1,3.708,3.708v.57a6.064,6.064,0,1,0,4.037.2v-.772a7.765,7.765,0,0,0-7.676-7.752,3.885,3.885,0,0,0-3.544-2.228h-7.733v-2.164h1.266V148.743h-1.266v-.551H152.31a4.888,4.888,0,0,0,4.885-4.885v-2.152a4.888,4.888,0,0,0-4.885-4.885ZM75.522,178.79a4.044,4.044,0,1,1-6.354-3.316v1.481a7.284,7.284,0,0,0,.038.747c.165,1.221,1.9,3.715,3.183,2.791.956-.69.949-2.164.886-2.873a3.9,3.9,0,0,1-.051-.392h0c-.006-.095-.013-.184-.013-.278v-1.81a4.043,4.043,0,0,1,2.3,3.645Zm63.277,1.7c1.272.924,3.012-1.569,3.183-2.791a7.283,7.283,0,0,0,.038-.747v-1.481a4.045,4.045,0,1,1-4.05-.329v1.81a1.96,1.96,0,0,1-.013.272h0c-.013.139-.025.266-.051.4-.063.709-.07,2.183.886,2.873ZM122,176.075H92.058l-5.6-6.164h39.919Zm8.8-11.625a1.726,1.726,0,1,1,0,3.443H80.427a1.726,1.726,0,1,1,0-3.443h50.367Zm-9.752-4.189v2.164H91.533v-2.164ZM91.533,148.737v-.551h29.515v.551Zm61.644-5.436a.854.854,0,0,1-.842.842H54.955a.854.854,0,0,1-.842-.842v-2.152a.854.854,0,0,1,.842-.842h97.373a.854.854,0,0,1,.842.842V143.3Z" transform="translate(-50.07 -110.058)" fill="#fff"/>
        <path id="Path_6633" data-name="Path 6633" d="M69.375,128.8h-7.9a4.224,4.224,0,0,1-4.221-4.221v-.785a4.224,4.224,0,0,1,4.221-4.221h7.9a4.224,4.224,0,0,1,4.221,4.221v.785A4.224,4.224,0,0,1,69.375,128.8Zm-7.9-7.961a2.959,2.959,0,0,0-2.955,2.955v.785a2.959,2.959,0,0,0,2.955,2.955h7.9a2.959,2.959,0,0,0,2.955-2.955v-.785a2.959,2.959,0,0,0-2.955-2.955h-7.9Z" transform="translate(-52.706 -103.926)" fill="#fff"/>
      </g>
      <g id="Group_987" data-name="Group 987" transform="translate(74.701 38.094)">
        <path id="Path_6634" data-name="Path 6634" d="M153.543,75.85a1.579,1.579,0,0,1-1.152-2.658L165.314,59.32,152.379,45.076a1.581,1.581,0,0,1,2.341-2.126l14.9,16.4-14.909,16a1.574,1.574,0,0,1-1.158.506Z" transform="translate(-119.25 -42.431)" fill="#fff"/>
        <g id="Group_986" data-name="Group 986" transform="translate(0 6.942)">
          <path id="Path_6635" data-name="Path 6635" d="M138.683,55.3H101.219a.949.949,0,0,1,0-1.9h37.464a.949.949,0,0,1,0,1.9Z" transform="translate(-100.27 -53.4)" fill="#fff"/>
          <path id="Path_6636" data-name="Path 6636" d="M146.224,83.168H121.759a.949.949,0,0,1,0-1.9h24.465a.949.949,0,1,1,0,1.9Z" transform="translate(-107.812 -63.633)" fill="#fff"/>
        </g>
      </g>
    </g>
  </g>
</svg>
