<svg xmlns="http://www.w3.org/2000/svg" xmlns:xlink="http://www.w3.org/1999/xlink" width="83" height="85" viewBox="0 0 83 85">
  <defs>
    <linearGradient id="linear-gradient" x1="0.25" y1="0.067" x2="0.75" y2="0.933" gradientUnits="objectBoundingBox">
      <stop offset="0" stop-color="#158bff"/>
      <stop offset="0.299" stop-color="#15b8ea"/>
      <stop offset="0.604" stop-color="#15ded7"/>
      <stop offset="0.849" stop-color="#15f6cb"/>
      <stop offset="1" stop-color="#15ffc7"/>
    </linearGradient>
  </defs>
  <g id="Group_957" data-name="Group 957" transform="translate(0.345 -0.279)">
    <g id="Group_909" data-name="Group 909" transform="translate(0 0)">
      <ellipse id="Ellipse_73" data-name="Ellipse 73" cx="41.5" cy="42.5" rx="41.5" ry="42.5" transform="translate(-0.345 0.279)" fill="#c8e0f1"/>
    </g>
    <g id="Group_910" data-name="Group 910" transform="translate(5.05 5.972)">
      <ellipse id="Ellipse_74" data-name="Ellipse 74" cx="36.262" cy="36.262" rx="36.262" ry="36.262" fill="url(#linear-gradient)"/>
    </g>
    <g id="Group_958" data-name="Group 958" transform="translate(13.051 14.54)">
      <path id="Path_6541" data-name="Path 6541" d="M101.647,116.1h-.1v-4.385a2.75,2.75,0,0,0-2.75-2.746H95.377a2.73,2.73,0,0,0-1.894.754,4.479,4.479,0,0,0,.177-1.241,4.552,4.552,0,1,0-9.1,0,4.348,4.348,0,0,0,.035.54l-5.407.53a2.317,2.317,0,0,0-.369-.631,2.377,2.377,0,0,0-1.8-.827,2.352,2.352,0,0,0-2.181,1.446L71.661,110.8a1.029,1.029,0,0,1-.543.057l-9.868-1.673a5.124,5.124,0,0,0-1.714,0l-9.931,1.66a2.737,2.737,0,0,0-.581,5.234H46.417a.9.9,0,0,0-.9.893v11.888a.9.9,0,0,0,.9.893h5.452a.9.9,0,0,0,.9-.893V126.4H95.3v2.462a.9.9,0,0,0,.9.893h5.452a.9.9,0,0,0,.9-.893V116.993A.9.9,0,0,0,101.647,116.1Zm-7.226-4.385a.947.947,0,0,1,.947-.947h3.425a.947.947,0,0,1,.947.947V116.1H94.421Zm-1.761-.385a2.6,2.6,0,0,0-.032.385V116.1H85.522a7.261,7.261,0,0,0,3.251-3.084c.114,0,.227.016.344.016A4.546,4.546,0,0,0,92.659,111.33Zm-3.542-5.609a2.762,2.762,0,1,1-2.762,2.762A2.762,2.762,0,0,1,89.118,105.72ZM86.993,112.5a5.458,5.458,0,0,1-3.056,2.3l-5.051,1.468a2.44,2.44,0,0,1-2.118-.379l-.079-.06a2.421,2.421,0,0,1-.922-2.472l.669-3.008a.578.578,0,0,1,1.133.215l-.549,3.52a.9.9,0,0,0,.316.827.887.887,0,0,0,.865.158l5.682-1.973a.9.9,0,1,0-.587-1.692l-4.281,1.484.243-1.553,5.913-.568a4.612,4.612,0,0,0,1.821,1.736ZM47.31,117.889H73.167a.893.893,0,0,0,.379-1.7.865.865,0,0,0-.347-.177L61.67,113.1h-.019a5.12,5.12,0,0,0-1.948-.069L50.2,114.5a.925.925,0,0,1-.717-.18.947.947,0,0,1,.414-1.686l9.934-1.664a3.422,3.422,0,0,1,1.121,0l9.865,1.673a2.8,2.8,0,0,0,1.509-.161l2-.8-.284,1.285a4.217,4.217,0,0,0,1.6,4.3l.079.06a4.255,4.255,0,0,0,2.525.824,4.208,4.208,0,0,0,1.168-.164l.341-.1H92.77a.9.9,0,0,0,.379-.085.874.874,0,0,0,.376.085h7.229v6.74H47.31Zm4.265-1.79,8.4-1.3a3.4,3.4,0,0,1,1.263.044l4.991,1.263Zm-.6,11.885H47.31v-1.578h3.665Zm49.778,0H97.091v-1.578h3.662Z" transform="translate(-45.52 -84.876)" fill="#fff"/>
      <path id="Path_6542" data-name="Path 6542" d="M101.823,49.91H98.1V46.188A2.361,2.361,0,0,0,95.74,43.83H92.8a2.361,2.361,0,0,0-2.358,2.358V49.9H86.718a2.361,2.361,0,0,0-2.358,2.358V55.2a2.361,2.361,0,0,0,2.358,2.358H90.44v3.725A2.361,2.361,0,0,0,92.8,63.645h2.939a2.361,2.361,0,0,0,2.358-2.358V57.565h3.728a2.364,2.364,0,0,0,2.361-2.358V52.268A2.364,2.364,0,0,0,101.823,49.91Zm.824,5.3a.824.824,0,0,1-.824.821H96.558v5.259a.824.824,0,0,1-.821.821H92.8a.824.824,0,0,1-.824-.821V56.8h0v-.78H86.718A.821.821,0,0,1,85.9,55.2V52.262a.821.821,0,0,1,.821-.821H91.98V46.188a.821.821,0,0,1,.821-.821H95.74a.821.821,0,0,1,.818.821V51.46h5.259a.824.824,0,0,1,.824.824Z" transform="translate(-72.099 -43.83)" fill="#fff"/>
    </g>
  </g>
</svg>
