<svg xmlns="http://www.w3.org/2000/svg" xmlns:xlink="http://www.w3.org/1999/xlink" width="83" height="85" viewBox="0 0 83 85">
  <defs>
    <linearGradient id="linear-gradient" x1="0.25" y1="0.067" x2="0.75" y2="0.933" gradientUnits="objectBoundingBox">
      <stop offset="0" stop-color="#158bff"/>
      <stop offset="0.299" stop-color="#15b8ea"/>
      <stop offset="0.604" stop-color="#15ded7"/>
      <stop offset="0.849" stop-color="#15f6cb"/>
      <stop offset="1" stop-color="#15ffc7"/>
    </linearGradient>
  </defs>
  <g id="Group_957" data-name="Group 957" transform="translate(0.345 -0.279)">
    <g id="Group_909" data-name="Group 909" transform="translate(0 0)">
      <ellipse id="Ellipse_73" data-name="Ellipse 73" cx="41.5" cy="42.5" rx="41.5" ry="42.5" transform="translate(-0.345 0.279)" fill="#c8e0f1"/>
    </g>
    <g id="Group_910" data-name="Group 910" transform="translate(4.655 5.972)">
      <ellipse id="Ellipse_74" data-name="Ellipse 74" cx="36.262" cy="36.262" rx="36.262" ry="36.262" fill="url(#linear-gradient)"/>
    </g>
    <g id="Group_958" data-name="Group 958" transform="translate(14.051 16.54)">
      <g id="Group_959" data-name="Group 959" transform="translate(-145.893 -1.756)">
        <path id="Path_6544" data-name="Path 6544" d="M101.331,67.825h-3.01V64.819A1.913,1.913,0,0,0,96.43,62.91H94.056a1.913,1.913,0,0,0-1.916,1.909v3H89.119a1.913,1.913,0,0,0-1.909,1.913v2.374a1.913,1.913,0,0,0,1.909,1.916H92.14v3.01a1.905,1.905,0,0,0,1.905,1.905h2.377a1.905,1.905,0,0,0,1.905-1.905v-3.01h3.017a1.905,1.905,0,0,0,1.877-1.916V69.734A1.905,1.905,0,0,0,101.331,67.825Zm.665,4.29a.669.669,0,0,1-.665.665H97.073v4.251a.665.665,0,0,1-.665.665H94.031a.665.665,0,0,1-.661-.665V72.77H89.119a.665.665,0,0,1-.665-.665v-2.37a.665.665,0,0,1,.665-.665h4.254V64.819a.665.665,0,0,1,.665-.665H96.43a.665.665,0,0,1,.665.665V69.07h4.254a.665.665,0,0,1,.647.665Z" transform="translate(77.653 -34.685)" fill="#fff"/>
        <path id="Path_6545" data-name="Path 6545" d="M96.362,52.107,80.489,39.27,64.624,52.107A.895.895,0,1,0,65.75,53.5l2.42-1.959V64.266a.894.894,0,1,0,1.787,0V50.095L80.5,41.569l10.542,8.526V64.266a.894.894,0,0,0,1.787,0V51.539L95.25,53.5a.894.894,0,0,0,1.112-1.391Z" transform="translate(92.378 -19.496)" fill="#fff"/>
      </g>
      <g id="Group_960" data-name="Group 960" transform="translate(-162.066 -13.7)" opacity="0.6">
        <path id="Path_6544-2" data-name="Path 6544" d="M101.331,67.825h-3.01V64.819A1.913,1.913,0,0,0,96.43,62.91H94.056a1.913,1.913,0,0,0-1.916,1.909v3H89.119a1.913,1.913,0,0,0-1.909,1.913v2.374a1.913,1.913,0,0,0,1.909,1.916H92.14v3.01a1.905,1.905,0,0,0,1.905,1.905h2.377a1.905,1.905,0,0,0,1.905-1.905v-3.01h3.017a1.905,1.905,0,0,0,1.877-1.916V69.734A1.905,1.905,0,0,0,101.331,67.825Zm.665,4.29a.669.669,0,0,1-.665.665H97.073v4.251a.665.665,0,0,1-.665.665H94.031a.665.665,0,0,1-.661-.665V72.77H89.119a.665.665,0,0,1-.665-.665v-2.37a.665.665,0,0,1,.665-.665h4.254V64.819a.665.665,0,0,1,.665-.665H96.43a.665.665,0,0,1,.665.665V69.07h4.254a.665.665,0,0,1,.647.665Z" transform="translate(77.653 -34.685)" fill="#fff"/>
        <path id="Path_6545-2" data-name="Path 6545" d="M96.362,52.107,80.489,39.27,64.624,52.107A.895.895,0,1,0,65.75,53.5l2.42-1.959V64.266a.894.894,0,1,0,1.787,0V50.095L80.5,41.569l10.542,8.526V64.266a.894.894,0,0,0,1.787,0V51.539L95.25,53.5a.894.894,0,0,0,1.112-1.391Z" transform="translate(92.378 -19.496)" fill="#fff"/>
      </g>
      <g id="Group_961" data-name="Group 961" transform="translate(-129.066 -13.7)" opacity="0.6">
        <path id="Path_6544-3" data-name="Path 6544" d="M101.331,67.825h-3.01V64.819A1.913,1.913,0,0,0,96.43,62.91H94.056a1.913,1.913,0,0,0-1.916,1.909v3H89.119a1.913,1.913,0,0,0-1.909,1.913v2.374a1.913,1.913,0,0,0,1.909,1.916H92.14v3.01a1.905,1.905,0,0,0,1.905,1.905h2.377a1.905,1.905,0,0,0,1.905-1.905v-3.01h3.017a1.905,1.905,0,0,0,1.877-1.916V69.734A1.905,1.905,0,0,0,101.331,67.825Zm.665,4.29a.669.669,0,0,1-.665.665H97.073v4.251a.665.665,0,0,1-.665.665H94.031a.665.665,0,0,1-.661-.665V72.77H89.119a.665.665,0,0,1-.665-.665v-2.37a.665.665,0,0,1,.665-.665h4.254V64.819a.665.665,0,0,1,.665-.665H96.43a.665.665,0,0,1,.665.665V69.07h4.254a.665.665,0,0,1,.647.665Z" transform="translate(77.653 -34.685)" fill="#fff"/>
        <path id="Path_6545-3" data-name="Path 6545" d="M96.362,52.107,80.489,39.27,64.624,52.107A.895.895,0,1,0,65.75,53.5l2.42-1.959V64.266a.894.894,0,1,0,1.787,0V50.095L80.5,41.569l10.542,8.526V64.266a.894.894,0,0,0,1.787,0V51.539L95.25,53.5a.894.894,0,0,0,1.112-1.391Z" transform="translate(92.378 -19.496)" fill="#fff"/>
      </g>
    </g>
  </g>
</svg>
