<svg xmlns="http://www.w3.org/2000/svg" xmlns:xlink="http://www.w3.org/1999/xlink" width="85" height="85" viewBox="0 0 85 85">
  <defs>
    <linearGradient id="linear-gradient" x1="0.25" y1="0.067" x2="0.75" y2="0.933" gradientUnits="objectBoundingBox">
      <stop offset="0" stop-color="#158bff"/>
      <stop offset="0.299" stop-color="#15b8ea"/>
      <stop offset="0.604" stop-color="#15ded7"/>
      <stop offset="0.849" stop-color="#15f6cb"/>
      <stop offset="1" stop-color="#15ffc7"/>
    </linearGradient>
  </defs>
  <g id="Group_965" data-name="Group 965" transform="translate(-0.195 -0.279)">
    <g id="Group_953" data-name="Group 953">
      <circle id="Ellipse_73" data-name="Ellipse 73" cx="42.5" cy="42.5" r="42.5" transform="translate(0.195 0.279)" fill="#c8e0f1"/>
    </g>
    <g id="Group_952" data-name="Group 952" transform="translate(6.59 5.972)">
      <ellipse id="Ellipse_74" data-name="Ellipse 74" cx="36.262" cy="36.262" rx="36.262" ry="36.262" fill="url(#linear-gradient)"/>
    </g>
    <g id="Group_954" data-name="Group 954" transform="translate(30.548 19.156)">
      <path id="Path_6534" data-name="Path 6534" d="M129.6,53.888a15.806,15.806,0,0,0-24.621-4.993l-.652.57a13.259,13.259,0,0,0-3.846,5.783l-.2.6-6.266,4.5a.751.751,0,0,0-.186,1.027l2.4,3.585-1.006,5.669a28.318,28.318,0,0,0-.432,4.933,3.924,3.924,0,0,0,2.9,3.783l2.654.715a24.921,24.921,0,0,0,2.561.546v9.308a.751.751,0,1,0,1.5,0V80.791q.817.081,1.639.108a14.788,14.788,0,0,0,9.173-2.919.751.751,0,0,0-.9-1.2,13.211,13.211,0,0,1-8.233,2.627,23.62,23.62,0,0,1-5.366-.787l-2.654-.715a2.423,2.423,0,0,1-1.787-2.336A26.791,26.791,0,0,1,96.7,70.9l1.058-5.969a.754.754,0,0,0-.114-.549l-2.156-3.249,5.876-4.222a.772.772,0,0,0,.273-.372l.273-.82a11.743,11.743,0,0,1,3.411-5.128l.649-.57a14.3,14.3,0,0,1,22.285,4.522,14.04,14.04,0,0,1-.177,12.56l-5.062,9.713a.751.751,0,0,0-.081.426l1.345,12.746a.751.751,0,0,0,.748.673h.078a.757.757,0,0,0,.67-.826l-1.324-12.524,4.957-9.5A15.556,15.556,0,0,0,129.6,53.888Z" transform="translate(-93.708 -44.987)" fill="#fff"/>
      <path id="Path_6535" data-name="Path 6535" d="M174.421,114.4c-2.321-2.543-6.486.57-6.663.706a.751.751,0,1,0,.9,1.2c.033-.024,3.27-2.4,4.648-.9a2.23,2.23,0,0,1,.36,1.943,8.087,8.087,0,0,1-3,4.789,3.093,3.093,0,0,1-2.819,0,.751.751,0,0,0-.751,1.3,4.72,4.72,0,0,0,2.192.54,4.369,4.369,0,0,0,2.1-.528,9.492,9.492,0,0,0,3.759-5.861A3.634,3.634,0,0,0,174.421,114.4Z" transform="translate(-143.922 -91.485)" fill="#fff"/>
      <path id="Path_6536" data-name="Path 6536" d="M51.623,112.569a1.8,1.8,0,0,0-2.54,0L47.4,114.251a1.8,1.8,0,0,0-.276,2.18l-11.11,11.11a.453.453,0,0,0,0,.637.444.444,0,0,0,.318.132.435.435,0,0,0,.318-.132l11.11-11.11a1.8,1.8,0,0,0,2.177-.276l1.684-1.684A1.8,1.8,0,0,0,51.623,112.569Zm-.637,1.9L49.3,116.151a.9.9,0,0,1-1.264,0h0a.9.9,0,0,1,0-1.264l1.681-1.681a.9.9,0,0,1,1.267,1.264Z" transform="translate(-53.814 -91.019)" fill="#fff"/>
    </g>
  </g>
</svg>
