<svg xmlns="http://www.w3.org/2000/svg" xmlns:xlink="http://www.w3.org/1999/xlink" width="85" height="85" viewBox="0 0 85 85">
  <defs>
    <linearGradient id="linear-gradient" x1="0.25" y1="0.067" x2="0.75" y2="0.933" gradientUnits="objectBoundingBox">
      <stop offset="0" stop-color="#158bff"/>
      <stop offset="0.299" stop-color="#15b8ea"/>
      <stop offset="0.604" stop-color="#15ded7"/>
      <stop offset="0.849" stop-color="#15f6cb"/>
      <stop offset="1" stop-color="#15ffc7"/>
    </linearGradient>
  </defs>
  <g id="Group_966" data-name="Group 966" transform="translate(-4.465 -0.279)">
    <g id="Group_847" data-name="Group 847" transform="translate(4.367)">
      <circle id="Ellipse_71" data-name="Ellipse 71" cx="42.5" cy="42.5" r="42.5" transform="translate(0.098 0.279)" fill="#c8e0f1"/>
    </g>
    <g id="Group_848" data-name="Group 848" transform="translate(11.368 6.187)">
      <ellipse id="Ellipse_72" data-name="Ellipse 72" cx="36.047" cy="36.047" rx="36.047" ry="36.047" fill="url(#linear-gradient)"/>
    </g>
    <g id="Group_908" data-name="Group 908" transform="translate(23.809 11.732)">
      <g id="Group_850" data-name="Group 850" transform="translate(2.04 49.847)" opacity="0.3">
        <g id="Group_849" data-name="Group 849">
          <path id="Path_6447" data-name="Path 6447" d="M58.982,207.3l39.33-.223.446-7.585-1.179-4.59L58.6,200.987Z" transform="translate(-58.6 -194.9)"/>
        </g>
      </g>
      <g id="Group_854" data-name="Group 854">
        <g id="Group_851" data-name="Group 851" transform="translate(0.032 0.032)">
          <path id="Path_6448" data-name="Path 6448" d="M52.3,38.6V99.762H95.008V38.6Z" transform="translate(-52.3 -38.6)" fill="#fff"/>
        </g>
        <g id="Group_853" data-name="Group 853">
          <g id="Group_852" data-name="Group 852">
            <path id="Path_6449" data-name="Path 6449" d="M52.232,38.532c.319,0,16.764,0,42.74-.032H95V99.693h0v.032H52.2v-.032c0-36.111.032-60.779.032-61.162,0,.382.032,25.051.032,61.162l-.032-.032h42.74l-.032.032h0V38.532l.032.032C68.964,38.532,52.519,38.532,52.232,38.532Z" transform="translate(-52.2 -38.5)" fill="#1a2e35"/>
          </g>
        </g>
      </g>
      <g id="Group_907" data-name="Group 907" transform="translate(3.618 15.932)">
        <g id="Group_856" data-name="Group 856" transform="translate(0 9.848)">
          <g id="Group_855" data-name="Group 855">
            <path id="Path_6450" data-name="Path 6450" d="M69.591,125.383v-.446c0-.287,0-.7-.032-1.211,0-1.052-.032-2.518-.032-4.271l.064.064H63.663c-.032,0,.127-.127.064-.064h0v5.928l-.064-.064c1.753,0,3.219.032,4.271.032.51,0,.924,0,1.211.032h.032c-.287,0-.7,0-1.211.032-1.052,0-2.55.032-4.335.032h-.064v-5.992h0l.064-.064h5.992v.064c0,1.785-.032,3.251-.032,4.335,0,.51,0,.892-.032,1.211v.319A.1.1,0,0,1,69.591,125.383Z" transform="translate(-63.552 -119.387)" fill="#1a2e35"/>
          </g>
        </g>
        <g id="Group_858" data-name="Group 858" transform="translate(0 20.143)">
          <g id="Group_857" data-name="Group 857">
            <path id="Path_6451" data-name="Path 6451" d="M69.591,157.683v-.446c0-.287,0-.7-.032-1.211,0-1.052-.032-2.518-.032-4.271l.064.064H63.663c-.032,0,.127-.128.064-.064h0v5.928l-.064-.064c1.753,0,3.219.032,4.271.032.51,0,.924,0,1.211.032h.032c-.287,0-.7,0-1.211.032-1.052,0-2.55.032-4.335.032h-.064v-5.992h0l.064-.064h5.992v.064c0,1.785-.032,3.251-.032,4.335,0,.51,0,.892-.032,1.211v.319A.1.1,0,0,1,69.591,157.683Z" transform="translate(-63.552 -151.687)" fill="#1a2e35"/>
          </g>
        </g>
        <g id="Group_860" data-name="Group 860" transform="translate(0 30.437)">
          <g id="Group_859" data-name="Group 859">
            <path id="Path_6452" data-name="Path 6452" d="M69.591,189.983v-.446c0-.287,0-.7-.032-1.211,0-1.052-.032-2.518-.032-4.271l.064.064H63.663c-.032,0,.127-.128.064-.064h0v5.928l-.064-.064c1.753,0,3.219.032,4.271.032.51,0,.924,0,1.211.032h.032c-.287,0-.7,0-1.211.032-1.052,0-2.55.032-4.335.032h-.064v-5.992h0l.064-.064h5.992v.064c0,1.785-.032,3.251-.032,4.335,0,.51,0,.892-.032,1.211v.319A.1.1,0,0,1,69.591,189.983Z" transform="translate(-63.552 -183.987)" fill="#1a2e35"/>
          </g>
        </g>
        <g id="Group_865" data-name="Group 865" transform="translate(1.067 9.821)">
          <g id="Group_864" data-name="Group 864">
            <g id="Group_863" data-name="Group 863">
              <g id="Group_862" data-name="Group 862">
                <g id="Group_861" data-name="Group 861">
                  <path id="Path_6453" data-name="Path 6453" d="M66.9,122.073l.956-.924,1.817,1.625,3.6-3.474.892.956-4.621,4.335Z" transform="translate(-66.9 -119.3)" fill="#ff735d"/>
                </g>
              </g>
            </g>
          </g>
        </g>
        <g id="Group_867" data-name="Group 867">
          <g id="Group_866" data-name="Group 866">
            <path id="Path_6454" data-name="Path 6454" d="M69.591,94.483v-.446c0-.287,0-.7-.032-1.211,0-1.052-.032-2.518-.032-4.271l.064.064H63.663c-.032,0,.127-.127.064-.064h0v5.928l-.064-.064c1.753,0,3.219.032,4.271.032.51,0,.924,0,1.211.032h.032c-.287,0-.7,0-1.211.032-1.052,0-2.55.032-4.335.032h-.064V88.555h0l.064-.064h5.992v.064c0,1.785-.032,3.251-.032,4.335,0,.51,0,.892-.032,1.211v.319A.1.1,0,0,1,69.591,94.483Z" transform="translate(-63.552 -88.487)" fill="#1a2e35"/>
          </g>
        </g>
        <g id="Group_869" data-name="Group 869" transform="translate(9.768 0.419)">
          <g id="Group_868" data-name="Group 868">
            <rect id="Rectangle_2827" data-name="Rectangle 2827" width="24.796" height="0.892" fill="#e1e1e1"/>
          </g>
        </g>
        <g id="Group_871" data-name="Group 871" transform="translate(9.768 2.203)">
          <g id="Group_870" data-name="Group 870">
            <rect id="Rectangle_2828" data-name="Rectangle 2828" width="24.796" height="0.892" fill="#e1e1e1"/>
          </g>
        </g>
        <g id="Group_873" data-name="Group 873" transform="translate(9.768 3.956)">
          <g id="Group_872" data-name="Group 872">
            <rect id="Rectangle_2829" data-name="Rectangle 2829" width="24.796" height="0.892" fill="#e1e1e1"/>
          </g>
        </g>
        <g id="Group_875" data-name="Group 875" transform="translate(9.768 10.267)">
          <g id="Group_874" data-name="Group 874">
            <rect id="Rectangle_2830" data-name="Rectangle 2830" width="15.49" height="0.892" fill="#e1e1e1"/>
          </g>
        </g>
        <g id="Group_877" data-name="Group 877" transform="translate(9.768 12.052)">
          <g id="Group_876" data-name="Group 876">
            <rect id="Rectangle_2831" data-name="Rectangle 2831" width="10.422" height="0.892" fill="#e1e1e1"/>
          </g>
        </g>
        <g id="Group_879" data-name="Group 879" transform="translate(9.768 13.805)">
          <g id="Group_878" data-name="Group 878">
            <rect id="Rectangle_2832" data-name="Rectangle 2832" width="24.796" height="0.892" fill="#e1e1e1"/>
          </g>
        </g>
        <g id="Group_881" data-name="Group 881" transform="translate(9.768 20.944)">
          <g id="Group_880" data-name="Group 880">
            <rect id="Rectangle_2833" data-name="Rectangle 2833" width="20.844" height="0.892" fill="#e1e1e1"/>
          </g>
        </g>
        <g id="Group_883" data-name="Group 883" transform="translate(9.768 22.697)">
          <g id="Group_882" data-name="Group 882">
            <rect id="Rectangle_2834" data-name="Rectangle 2834" width="12.398" height="0.892" fill="#e1e1e1"/>
          </g>
        </g>
        <g id="Group_885" data-name="Group 885" transform="translate(9.768 24.482)">
          <g id="Group_884" data-name="Group 884">
            <rect id="Rectangle_2835" data-name="Rectangle 2835" width="22.724" height="0.892" fill="#e1e1e1"/>
          </g>
        </g>
        <g id="Group_887" data-name="Group 887" transform="translate(9.768 30.792)">
          <g id="Group_886" data-name="Group 886">
            <rect id="Rectangle_2836" data-name="Rectangle 2836" width="22.183" height="0.892" fill="#e1e1e1"/>
          </g>
        </g>
        <g id="Group_889" data-name="Group 889" transform="translate(9.768 32.577)">
          <g id="Group_888" data-name="Group 888">
            <rect id="Rectangle_2837" data-name="Rectangle 2837" width="15.49" height="0.892" fill="#e1e1e1"/>
          </g>
        </g>
        <g id="Group_891" data-name="Group 891" transform="translate(9.768 34.362)">
          <g id="Group_890" data-name="Group 890">
            <rect id="Rectangle_2838" data-name="Rectangle 2838" width="24.796" height="0.892" fill="#e1e1e1"/>
          </g>
        </g>
        <g id="Group_896" data-name="Group 896" transform="translate(1.067 0.195)">
          <g id="Group_895" data-name="Group 895">
            <g id="Group_894" data-name="Group 894">
              <g id="Group_893" data-name="Group 893">
                <g id="Group_892" data-name="Group 892">
                  <path id="Path_6455" data-name="Path 6455" d="M66.9,91.777l.924-.924,1.753,1.562L73.051,89.1l.829.892-4.43,4.175Z" transform="translate(-66.9 -89.1)" fill="#ff735d"/>
                </g>
              </g>
            </g>
          </g>
        </g>
        <g id="Group_901" data-name="Group 901" transform="translate(1.067 19.988)">
          <g id="Group_900" data-name="Group 900">
            <g id="Group_899" data-name="Group 899">
              <g id="Group_898" data-name="Group 898">
                <g id="Group_897" data-name="Group 897">
                  <path id="Path_6456" data-name="Path 6456" d="M66.9,153.877l.924-.924,1.753,1.562,3.474-3.315.829.892-4.43,4.175Z" transform="translate(-66.9 -151.2)" fill="#ff735d"/>
                </g>
              </g>
            </g>
          </g>
        </g>
        <g id="Group_906" data-name="Group 906" transform="translate(1.067 29.964)">
          <g id="Group_905" data-name="Group 905">
            <g id="Group_904" data-name="Group 904">
              <g id="Group_903" data-name="Group 903">
                <g id="Group_902" data-name="Group 902">
                  <path id="Path_6457" data-name="Path 6457" d="M66.9,185.3l.956-.956,1.817,1.625,3.6-3.474.892.956-4.621,4.335Z" transform="translate(-66.9 -182.5)" fill="#ff735d"/>
                </g>
              </g>
            </g>
          </g>
        </g>
      </g>
      <g id="Assessment_Form" data-name="Assessment Form" transform="translate(3.618 7.631)">
        <path id="Path_6487" data-name="Path 6487" d="M88.688,129.756h-.951l-.184.552H87l.982-2.608h.491l.982,2.608h-.583Zm-.8-.43h.644l-.338-.982Z" transform="translate(-87 -127.7)" fill="#666"/>
        <path id="Path_6488" data-name="Path 6488" d="M96.466,131.142a.169.169,0,0,0-.092-.153,1.243,1.243,0,0,0-.307-.092c-.46-.092-.706-.307-.706-.583a.5.5,0,0,1,.215-.43.857.857,0,0,1,.552-.184.885.885,0,0,1,.583.184.552.552,0,0,1,.215.46H96.4a.436.436,0,0,0-.061-.184c-.031-.061-.123-.061-.215-.061a.443.443,0,0,0-.215.061c-.061.031-.061.092-.061.153s.031.092.092.153.153.061.276.092.245.061.338.092a.518.518,0,0,1,.4.522.5.5,0,0,1-.215.43.875.875,0,0,1-.583.153.98.98,0,0,1-.43-.092.78.78,0,0,1-.307-.246.511.511,0,0,1-.123-.338h.522a.279.279,0,0,0,.092.215.331.331,0,0,0,.245.061.358.358,0,0,0,.215-.061A.261.261,0,0,0,96.466,131.142Z" transform="translate(-92.753 -129.086)" fill="#666"/>
        <path id="Path_6489" data-name="Path 6489" d="M102.666,131.142a.169.169,0,0,0-.092-.153,1.243,1.243,0,0,0-.307-.092c-.46-.092-.706-.307-.706-.583a.5.5,0,0,1,.215-.43.857.857,0,0,1,.552-.184.885.885,0,0,1,.583.184.552.552,0,0,1,.215.46H102.6a.436.436,0,0,0-.061-.184c-.031-.061-.123-.061-.215-.061a.443.443,0,0,0-.215.061c-.061.031-.061.092-.061.153s.031.092.092.153.153.061.276.092.245.061.338.092a.518.518,0,0,1,.4.522.5.5,0,0,1-.215.43.875.875,0,0,1-.583.153.98.98,0,0,1-.43-.092.78.78,0,0,1-.307-.246.511.511,0,0,1-.123-.338h.491a.278.278,0,0,0,.092.215.331.331,0,0,0,.245.061.358.358,0,0,0,.215-.061C102.574,131.265,102.666,131.2,102.666,131.142Z" transform="translate(-97.051 -129.086)" fill="#666"/>
        <path id="Path_6490" data-name="Path 6490" d="M108.682,131.725a.972.972,0,0,1-.706-.276.924.924,0,0,1-.276-.706v-.031a1.008,1.008,0,0,1,.123-.522,1.228,1.228,0,0,1,.307-.368.9.9,0,0,1,1.074.123.974.974,0,0,1,.215.706v.215h-1.227a.585.585,0,0,0,.153.307.394.394,0,0,0,.307.123.484.484,0,0,0,.46-.215l.245.276a.779.779,0,0,1-.307.245A.658.658,0,0,1,108.682,131.725Zm-.061-1.6a.348.348,0,0,0-.245.092.712.712,0,0,0-.123.307h.736V130.5a.325.325,0,0,0-.368-.368Z" transform="translate(-101.348 -129.086)" fill="#666"/>
        <path id="Path_6491" data-name="Path 6491" d="M115.266,131.142a.169.169,0,0,0-.092-.153,1.243,1.243,0,0,0-.307-.092c-.46-.092-.706-.307-.706-.583a.5.5,0,0,1,.215-.43.857.857,0,0,1,.552-.184.885.885,0,0,1,.583.184.552.552,0,0,1,.215.46H115.2a.436.436,0,0,0-.061-.184c-.031-.061-.123-.061-.215-.061a.443.443,0,0,0-.215.061c-.061.031-.061.092-.061.153s.031.092.092.153.153.061.276.092.245.061.338.092a.518.518,0,0,1,.4.522.5.5,0,0,1-.215.43.875.875,0,0,1-.583.153.98.98,0,0,1-.43-.092.78.78,0,0,1-.307-.246.511.511,0,0,1-.123-.338h.491a.278.278,0,0,0,.092.215.331.331,0,0,0,.245.061.358.358,0,0,0,.215-.061C115.174,131.265,115.266,131.2,115.266,131.142Z" transform="translate(-105.784 -129.086)" fill="#666"/>
        <path id="Path_6492" data-name="Path 6492" d="M121.535,131.142a.169.169,0,0,0-.092-.153,1.244,1.244,0,0,0-.307-.092c-.46-.092-.706-.307-.706-.583a.5.5,0,0,1,.215-.43.857.857,0,0,1,.552-.184.885.885,0,0,1,.583.184.552.552,0,0,1,.215.46H121.5a.437.437,0,0,0-.061-.184c-.031-.061-.123-.061-.215-.061a.443.443,0,0,0-.215.061c-.061.031-.061.092-.061.153s.031.092.092.153.153.061.276.092.245.061.338.092a.518.518,0,0,1,.4.522.5.5,0,0,1-.215.43.875.875,0,0,1-.583.153.98.98,0,0,1-.43-.092.78.78,0,0,1-.307-.246.511.511,0,0,1-.123-.338h.491a.279.279,0,0,0,.092.215.331.331,0,0,0,.245.061.358.358,0,0,0,.215-.061A.261.261,0,0,0,121.535,131.142Z" transform="translate(-110.151 -129.086)" fill="#666"/>
        <path id="Path_6493" data-name="Path 6493" d="M127.36,129.731l.031.215a.631.631,0,0,1,.552-.245.513.513,0,0,1,.522.307.7.7,0,0,1,.583-.307.539.539,0,0,1,.46.184.911.911,0,0,1,.153.552v1.227h-.522v-1.227a.475.475,0,0,0-.061-.245c-.031-.061-.123-.061-.215-.061a.332.332,0,0,0-.338.215v1.35H128v-1.227a.475.475,0,0,0-.061-.245c-.031-.061-.123-.061-.215-.061a.308.308,0,0,0-.307.184v1.381H126.9v-1.933h.46Z" transform="translate(-114.657 -129.086)" fill="#666"/>
        <path id="Path_6494" data-name="Path 6494" d="M137.982,131.725a.972.972,0,0,1-.706-.276.924.924,0,0,1-.276-.706v-.031a1.009,1.009,0,0,1,.123-.522,1.227,1.227,0,0,1,.307-.368.9.9,0,0,1,1.074.123.974.974,0,0,1,.215.706v.215h-1.227a.585.585,0,0,0,.153.307.394.394,0,0,0,.307.123.484.484,0,0,0,.46-.215l.245.276a.779.779,0,0,1-.307.245A.752.752,0,0,1,137.982,131.725Zm-.061-1.6a.349.349,0,0,0-.245.092.712.712,0,0,0-.123.307h.736V130.5a.375.375,0,0,0-.092-.276A.5.5,0,0,0,137.921,130.13Z" transform="translate(-121.658 -129.086)" fill="#666"/>
        <path id="Path_6495" data-name="Path 6495" d="M144.191,129.731l.031.215a.666.666,0,0,1,.552-.245.539.539,0,0,1,.46.184.911.911,0,0,1,.153.552v1.258h-.522v-1.258a.475.475,0,0,0-.061-.245c-.031-.061-.123-.061-.245-.061a.385.385,0,0,0-.338.184v1.381H143.7v-1.933h.491Z" transform="translate(-126.302 -129.086)" fill="#666"/>
        <path id="Path_6496" data-name="Path 6496" d="M150.7,128.3v.491h.338v.368H150.7v.982a.23.23,0,0,0,.031.153.234.234,0,0,0,.153.061h.153v.4a1.091,1.091,0,0,1-.307.061.488.488,0,0,1-.552-.552v-1.043H149.9v-.368h.276v-.491h.522Z" transform="translate(-130.599 -128.116)" fill="#666"/>
        <path id="Path_6497" data-name="Path 6497" d="M159.1,129.234h-1.043v1.074H157.5V127.7h1.718v.43h-1.166v.675H159.1Z" transform="translate(-135.867 -127.7)" fill="#666"/>
        <path id="Path_6498" data-name="Path 6498" d="M163.7,130.682a1.008,1.008,0,0,1,.123-.522.83.83,0,0,1,.307-.338,1.156,1.156,0,0,1,.491-.123.879.879,0,0,1,.644.245,1.042,1.042,0,0,1,.276.644v.123a.9.9,0,0,1-.921.982.9.9,0,0,1-.675-.276.936.936,0,0,1-.245-.736Zm.522.031a.813.813,0,0,0,.092.43.378.378,0,0,0,.307.153.426.426,0,0,0,.307-.153c.092-.092.092-.245.092-.46a.891.891,0,0,0-.092-.43.312.312,0,0,0-.307-.153.426.426,0,0,0-.307.153A1.025,1.025,0,0,0,164.222,130.713Z" transform="translate(-140.165 -129.086)" fill="#666"/>
        <path id="Path_6499" data-name="Path 6499" d="M171.8,130.291h-.184a.389.389,0,0,0-.4.215v1.258H170.7v-1.933h.491v.245a.463.463,0,0,1,.43-.276.23.23,0,0,1,.153.031Z" transform="translate(-145.017 -129.156)" fill="#666"/>
        <path id="Path_6500" data-name="Path 6500" d="M175.66,129.731l.031.215a.631.631,0,0,1,.552-.245.513.513,0,0,1,.522.307.7.7,0,0,1,.583-.307.538.538,0,0,1,.46.184.911.911,0,0,1,.153.552v1.227h-.522v-1.227a.475.475,0,0,0-.061-.245c-.031-.061-.123-.061-.215-.061a.332.332,0,0,0-.338.215v1.35H176.3v-1.227a.475.475,0,0,0-.061-.245c-.031-.061-.123-.061-.215-.061a.308.308,0,0,0-.307.184v1.381H175.2v-1.933h.46Z" transform="translate(-148.136 -129.086)" fill="#666"/>
      </g>
    </g>
    <g id="XMLID_63_" transform="translate(51.967 30.27)">
      <path id="XMLID_65_" d="M194.533,104.1a1.814,1.814,0,0,0-.191-2.55l-1.466-1.275a1.814,1.814,0,0,0-2.55.191L180,112.382l4.175,3.633Z" transform="translate(-166.901 -99.836)" fill="#ff735d"/>
      <rect id="XMLID_66_" width="13.641" height="5.546" transform="translate(4.146 22.85) rotate(-48.998)" fill="#2d2d2d"/>
      <path id="XMLID_62_" d="M139.6,196.484l-.7-.223.765-.861.51.446Z" transform="translate(-138.9 -164.942)" fill="#ff735d"/>
      <path id="XMLID_68_" d="M147.59,175.568l-3.315-2.868-2.964,3.41-.414,2.9-.8.892.956.829.8-.924,2.773-.8Z" transform="translate(-139.718 -149.477)" fill="#111"/>
      <rect id="XMLID_69_" width="4.398" height="0.255" transform="translate(4.579 23.226) rotate(41.002)" fill="#111"/>
    </g>
  </g>
</svg>
